<svg width="23" height="23" viewBox="0 0 23 23" fill="none" xmlns="http://www.w3.org/2000/svg">
<path d="M3.10771 0.96957C1.90308 1.64072 1.00821 2.24304 0.71566 2.57861C0.121949 3.27558 -0.136186 4.75555 0.0703223 6.27855C0.509152 9.53965 2.99585 13.36 7.2895 17.3956C11.1357 21.0008 14.7668 22.8336 17.7526 22.6701C18.8281 22.6099 19.6198 22.3776 20.1016 21.9645C20.6781 21.4655 22.0118 19.2197 22.0118 18.7465C22.0118 18.0925 21.8483 17.9376 19.1895 16.1651C16.9265 14.6679 16.6598 14.5044 16.3156 14.5044C15.7649 14.4958 15.4466 14.711 14.8012 15.5284C13.631 17.0342 13.6482 17.0256 12.8222 16.5695C10.4904 15.2702 7.40996 12.1898 6.11068 9.85802C5.65464 9.03199 5.64604 9.04919 7.15183 7.87898C7.96925 7.23364 8.18437 6.91528 8.17576 6.36459C8.17576 6.02041 8.01228 5.75367 6.51509 3.49069C5.12977 1.417 4.79419 0.96957 4.52745 0.831898C4.06281 0.599577 3.71863 0.625389 3.10771 0.96957ZM4.25211 1.51165C4.40699 1.6063 7.47019 6.25273 7.47019 6.3904C7.47019 6.65714 7.32392 6.81202 6.38603 7.55201C5.31907 8.39525 5.15558 8.59316 5.08675 9.07501C5.05233 9.34175 5.11256 9.53105 5.39651 10.0731C6.10208 11.4068 7.18624 12.7749 8.8125 14.3582C10.3613 15.864 11.3336 16.6126 12.5985 17.2837C13.1836 17.5849 13.3213 17.6279 13.6224 17.5763C14.1301 17.4988 14.2764 17.3697 15.1282 16.2942C15.8682 15.3563 16.0231 15.21 16.2898 15.21C16.4275 15.21 21.0739 18.2732 21.1686 18.4281C21.203 18.4797 21.2374 18.6174 21.2374 18.7379C21.2374 19.039 19.9553 21.1299 19.5939 21.4225C19.1809 21.758 18.4409 21.9215 17.3568 21.9215C15.068 21.9215 12.5124 20.7685 9.53527 18.3937C8.37367 17.4644 5.21581 14.3065 4.28653 13.1449C1.91169 10.1678 0.758682 7.61224 0.758682 5.32345C0.758682 4.23928 0.922168 3.49929 1.25774 3.08628C1.5503 2.72489 3.64119 1.44282 3.94235 1.44282C4.06281 1.44282 4.20048 1.47724 4.25211 1.51165Z" fill="white"/>
<path d="M12.2285 3.68854C12.065 3.85202 12.0908 4.179 12.2801 4.28225C12.3748 4.32527 12.6157 4.36829 12.8222 4.36829C13.0287 4.36829 13.4417 4.42853 13.7515 4.48876C16.3931 5.04805 18.3721 7.25941 18.6474 9.96122C18.7421 10.8475 18.7679 10.9077 19.0347 10.9077C19.3874 10.9077 19.4649 10.7098 19.4046 9.99564C19.3186 9.05775 19.1293 8.3952 18.6905 7.50894C17.5891 5.27177 15.4896 3.85202 12.9599 3.62831C12.4952 3.59389 12.3059 3.6111 12.2285 3.68854Z" fill="white"/>
<path d="M12.2285 5.92576C12.1683 5.98599 12.1166 6.10646 12.1166 6.1839C12.1166 6.40761 12.2801 6.48506 12.9771 6.59691C14.8098 6.88086 16.1608 8.20596 16.4275 9.96988C16.548 10.7787 16.5996 10.8647 16.9007 10.8647C17.1417 10.8647 17.1503 10.8475 17.1761 10.4345C17.2965 8.71362 15.9456 6.81203 14.1215 6.12367C13.4331 5.86553 12.392 5.75367 12.2285 5.92576Z" fill="white"/>
<path d="M12.2715 8.07677C12.0908 8.18002 12.065 8.49839 12.2199 8.65327C12.2801 8.7135 12.4436 8.75652 12.5899 8.75652C13.2438 8.76513 14.0096 9.39325 14.1817 10.0644C14.3796 10.8302 14.3968 10.8646 14.5947 10.8904C14.9389 10.9421 15.068 10.7528 15.0077 10.2795C14.9131 9.41907 14.3366 8.63606 13.545 8.27467C13.0115 8.04235 12.4694 7.9563 12.2715 8.07677Z" fill="white"/>
</svg>
