<svg width="18" height="27" viewBox="0 0 18 27" fill="none" xmlns="http://www.w3.org/2000/svg">
<path d="M6.75704 0.904043C5.01353 1.37526 3.70589 2.16456 2.48072 3.48397C0.45447 5.67515 -0.264141 8.74986 0.548714 11.7657C1.32623 14.6755 3.10509 18.2921 5.90885 22.698C7.60524 25.3486 8.60658 26.7034 8.86576 26.7034C9.14849 26.7034 10.1616 25.3722 11.964 22.6391C14.6853 18.4924 16.3346 15.1467 17.1239 12.1309C18.0546 8.59672 17.3359 5.59269 14.9916 3.26015C13.2128 1.48129 11.5988 0.786238 9.10137 0.715555C7.89975 0.680212 7.46388 0.715555 6.75704 0.904043ZM10.7978 1.72868C13.0243 2.29414 14.8738 3.81383 15.9341 5.9461C16.9707 8.03125 16.9472 10.2578 15.8516 13.4503C15.2979 15.0878 13.578 18.5159 12.1996 20.7189C10.9509 22.7333 9.00712 25.5253 8.86576 25.5253C8.73617 25.5253 5.84995 21.1076 4.86038 19.3995C3.10509 16.3601 1.85635 13.521 1.32623 11.4476C0.548714 8.43179 1.38513 5.58091 3.62343 3.51932C5.54365 1.76402 8.26495 1.08075 10.7978 1.72868Z" fill="white"/>
<path d="M7.56992 4.5089C6.16804 4.88587 5.01355 5.87544 4.34206 7.26554C4.00043 7.98415 3.97687 8.11374 3.97687 9.32713C3.97687 10.5641 4.00043 10.6701 4.37741 11.4476C5.11958 12.9555 6.47434 13.9569 8.14717 14.2278C10.2559 14.5812 12.3764 13.4385 13.3659 11.4241C13.7311 10.6701 13.7547 10.5641 13.7547 9.32713C13.7547 8.11374 13.7311 7.98415 13.3895 7.26554C12.3057 5.00368 9.92603 3.87275 7.56992 4.5089ZM10.7035 5.61627C11.5282 6.0168 12.2232 6.72363 12.6473 7.59539C12.8829 8.06661 12.9301 8.33756 12.9301 9.32713C12.9301 10.3756 12.8947 10.5641 12.612 11.106C11.9641 12.3429 11.0923 13.0262 9.7611 13.3561C7.97046 13.7919 6.12092 12.932 5.20204 11.2474C4.82506 10.5405 4.8015 10.4463 4.8015 9.32713C4.8015 8.33756 4.84863 8.06661 5.07246 7.60717C6.14448 5.42778 8.59483 4.5678 10.7035 5.61627Z" fill="white"/>
</svg>
