<svg width="8" height="8" viewBox="0 0 8 8" fill="none" xmlns="http://www.w3.org/2000/svg">
<path d="M3.44221 0.0116887C3.25289 0.0319589 2.86297 0.115292 2.66913 0.176102C2.38514 0.268444 1.96367 0.482407 1.70673 0.664838C1.43401 0.860783 1.06212 1.2324 0.866032 1.50492C-0.0219945 2.75492 -0.0219945 4.44409 0.866032 5.69409C0.95168 5.8112 1.12523 6.0139 1.25595 6.14453C2.1282 7.0139 3.33853 7.372 4.56915 7.12201C4.99513 7.03417 5.52029 6.80219 5.89894 6.53417C6.17165 6.33823 6.54354 5.96661 6.73738 5.69409C7.03264 5.27742 7.24225 4.79094 7.34592 4.27067C7.41805 3.90581 7.41805 3.2932 7.34592 2.92834C7.2738 2.57474 7.18139 2.30222 7.02587 1.98915C6.84782 1.6333 6.63821 1.34501 6.34971 1.05448C5.65552 0.360786 4.73819 -0.0153381 3.76902 0.000427544C3.63379 0.000427544 3.48504 0.00718426 3.44221 0.0116887ZM4.37757 0.615289C4.77876 0.696369 5.17319 0.860783 5.51578 1.08826C5.77272 1.25718 6.15813 1.65357 6.33619 1.92609C6.68779 2.46438 6.83429 2.95311 6.83429 3.5995C6.83429 3.86752 6.82302 4.02518 6.79372 4.16256C6.663 4.79319 6.39028 5.29769 5.94627 5.74138C5.50225 6.18507 4.99739 6.4576 4.3663 6.58823C4.10034 6.64228 3.50532 6.64228 3.23936 6.58823C2.60828 6.4576 2.10341 6.18507 1.6594 5.74138C1.21538 5.29769 0.942664 4.79319 0.811939 4.16256C0.757846 3.8968 0.757846 3.30221 0.811939 3.03645C0.942664 2.40582 1.21538 1.90132 1.6594 1.45763C2.15976 0.955377 2.77056 0.660333 3.48729 0.572496C3.64957 0.552226 4.20402 0.579253 4.37757 0.615289Z" fill="white"/>
<path d="M3.4084 1.80676C3.0568 1.88784 2.77957 2.03649 2.52488 2.27748C2.14623 2.63559 1.95465 3.08378 1.95465 3.59955C1.95465 4.11756 2.14623 4.5635 2.52714 4.92161C2.73224 5.11755 2.93734 5.24143 3.21682 5.33827C3.42192 5.40809 3.44446 5.4126 3.78029 5.4126C4.11612 5.4126 4.13866 5.40809 4.34376 5.33827C4.60972 5.24593 4.82383 5.12206 5.00189 4.95539C5.12135 4.84278 5.13712 4.81575 5.14614 4.72566C5.15966 4.60404 5.12585 4.53197 5.02218 4.46215C4.88469 4.36981 4.80806 4.39008 4.5714 4.58377C4.07329 4.98918 3.35205 4.95089 2.88776 4.48918C2.38965 3.99369 2.38965 3.2054 2.88776 2.70991C3.35205 2.2482 4.07329 2.20991 4.5714 2.61532C4.80806 2.80901 4.88469 2.82928 5.02218 2.73694C5.12585 2.66712 5.15966 2.59505 5.14614 2.47343C5.13712 2.38334 5.12135 2.35631 5.00189 2.2437C4.82158 2.07703 4.60746 1.95091 4.34376 1.86307C4.15443 1.80001 4.09583 1.791 3.83664 1.78424C3.6428 1.77748 3.49856 1.78649 3.4084 1.80676Z" fill="white"/>
</svg>
