<svg width="26" height="19" viewBox="0 0 26 19" fill="none" xmlns="http://www.w3.org/2000/svg">
<path d="M0.710938 0.961426C0.578906 1.03252 0.355469 1.2458 0.233594 1.42861L0 1.77393V9.46221V17.1505L0.233594 17.4958C0.355469 17.6786 0.578906 17.8919 0.710938 17.963C1.07656 18.1458 24.9234 18.1458 25.2891 17.963C25.4211 17.8919 25.6445 17.6786 25.7664 17.4958L26 17.1505V9.46221V1.77393L25.7664 1.42861C25.6445 1.2458 25.4211 1.03252 25.2891 0.961426C24.9234 0.778612 1.07656 0.778612 0.710938 0.961426ZM24.0703 1.84502C24.05 1.98721 13.7109 9.62471 13.3859 9.73643C13.0711 9.84814 12.9289 9.84814 12.6242 9.73643C12.2891 9.62471 1.95 1.98721 1.92969 1.84502C1.92969 1.81455 6.90625 1.79424 13 1.79424C19.0938 1.79424 24.0703 1.81455 24.0703 1.84502ZM6.39844 6.47627C9.22187 8.58877 11.7102 10.4169 11.9336 10.5489C12.4617 10.8536 13.4469 10.8739 13.9953 10.5896C14.1984 10.4778 16.7477 8.60908 19.6523 6.42549L24.9336 2.46455L24.9641 5.90752C24.9742 7.79658 24.9742 10.9146 24.9641 12.8341L24.9336 16.3278L22.1914 12.9356C20.6883 11.0669 19.3477 9.47236 19.2258 9.39111C19.0125 9.24893 18.9617 9.24893 18.7383 9.40127C18.5961 9.49268 18.4844 9.65518 18.4844 9.76689C18.4844 9.86846 19.7641 11.5341 21.3281 13.4638C22.8922 15.3935 24.1719 16.9981 24.1719 17.0286C24.1719 17.0591 19.1445 17.0794 13 17.0794C6.85547 17.0794 1.82812 17.0591 1.82812 17.0286C1.82812 16.9981 3.10781 15.3935 4.67188 13.4638C6.23594 11.5341 7.51562 9.91924 7.51562 9.86846C7.51562 9.52314 7.13984 9.2083 6.85547 9.32002C6.76406 9.36064 5.81953 10.4677 4.74297 11.788C3.67656 13.1083 2.39687 14.6825 1.90937 15.2817L1.01562 16.3786V9.40127C1.01562 3.83564 1.04609 2.45439 1.14766 2.52549C1.20859 2.58642 3.575 4.35361 6.39844 6.47627Z" fill="white"/>
</svg>
