<svg width="14" height="15" viewBox="0 0 14 15" fill="none" xmlns="http://www.w3.org/2000/svg">
<path d="M6.20405 0.949689C5.8523 0.98735 5.12786 1.14218 4.76773 1.25516C4.2401 1.42672 3.45704 1.82425 2.97966 2.16319C2.47297 2.52724 1.78203 3.21768 1.41771 3.724C-0.232173 6.04639 -0.232173 9.18476 1.41771 11.5072C1.57684 11.7247 1.89928 12.1013 2.14215 12.344C3.76273 13.9593 6.01143 14.6246 8.29782 14.1601C9.08926 13.9969 10.065 13.5659 10.7685 13.068C11.2751 12.7039 11.9661 12.0135 12.3262 11.5072C12.8748 10.733 13.2642 9.82917 13.4568 8.86255C13.5908 8.18467 13.5908 7.04649 13.4568 6.3686C13.3228 5.71164 13.1512 5.20531 12.8622 4.62367C12.5314 3.96252 12.142 3.42691 11.606 2.88711C10.3162 1.59828 8.61188 0.899475 6.81124 0.928766C6.55999 0.928766 6.28362 0.94132 6.20405 0.949689ZM7.94188 2.07113C8.68726 2.22177 9.42007 2.52724 10.0566 2.94987C10.534 3.26371 11.25 4.00018 11.5808 4.5065C12.2341 5.5066 12.5063 6.41463 12.5063 7.61558C12.5063 8.11353 12.4853 8.40645 12.4309 8.6617C12.188 9.83336 11.6813 10.7707 10.8564 11.595C10.0315 12.4194 9.09345 12.9257 7.92094 13.1684C7.42681 13.2688 6.3213 13.2688 5.82718 13.1684C4.65467 12.9257 3.71666 12.4194 2.89172 11.595C2.06678 10.7707 1.56009 9.83336 1.31721 8.6617C1.21671 8.16793 1.21671 7.06322 1.31721 6.56946C1.56009 5.3978 2.06678 4.46047 2.89172 3.63613C3.82135 2.70299 4.95617 2.15482 6.2878 1.99163C6.58931 1.95397 7.61944 2.00418 7.94188 2.07113Z" fill="black"/>
<path d="M6.14126 4.28477C5.48801 4.43541 4.97294 4.71158 4.49975 5.15932C3.79625 5.82466 3.44031 6.65737 3.44031 7.61562C3.44031 8.57805 3.79625 9.40658 4.50394 10.0719C4.885 10.436 5.26607 10.6661 5.78532 10.846C6.16639 10.9758 6.20826 10.9841 6.8322 10.9841C7.45614 10.9841 7.49802 10.9758 7.87908 10.846C8.37321 10.6745 8.77103 10.4443 9.10184 10.1347C9.32378 9.92546 9.35309 9.87524 9.36984 9.70786C9.39497 9.4819 9.33216 9.348 9.13953 9.21828C8.88409 9.04671 8.74171 9.08437 8.30202 9.44424C7.37658 10.1974 6.03657 10.1263 5.17394 9.26849C4.2485 8.3479 4.2485 6.88333 5.17394 5.96275C6.03657 5.10493 7.37658 5.03379 8.30202 5.787C8.74171 6.14686 8.88409 6.18452 9.13953 6.01296C9.33216 5.88324 9.39497 5.74934 9.36984 5.52338C9.35309 5.356 9.32378 5.30578 9.10184 5.09656C8.76684 4.78691 8.36902 4.55257 7.87908 4.38938C7.52733 4.27221 7.41846 4.25548 6.93689 4.24292C6.57676 4.23037 6.30876 4.24711 6.14126 4.28477Z" fill="black"/>
</svg>
