<svg width="42" height="9" viewBox="0 0 42 9" fill="none" xmlns="http://www.w3.org/2000/svg">
<path d="M0 6.56848V0.0844275H1.11368V1.09756H1.21137C1.36768 0.751407 1.62005 0.482645 1.96848 0.291276C2.31692 0.0970918 2.73536 0 3.22382 0C3.71879 0 4.13072 0.0970918 4.45962 0.291276C4.79177 0.482645 5.05065 0.751407 5.23626 1.09756H5.31442C5.50654 0.762664 5.79473 0.496717 6.17898 0.299719C6.56324 0.0999062 7.02402 0 7.56132 0C8.23213 0 8.78083 0.18152 9.20742 0.544559C9.63401 0.904784 9.8473 1.46623 9.8473 2.22889V6.56848H8.69454V2.22889C8.69454 1.75047 8.54312 1.40854 8.24028 1.2031C7.93743 0.997655 7.58086 0.894934 7.17055 0.894934C6.64302 0.894934 6.23434 1.03283 5.94453 1.30863C5.65471 1.58161 5.5098 1.92777 5.5098 2.34709V6.56848H4.3375V2.12758C4.3375 1.75891 4.1991 1.46201 3.92231 1.23687C3.64552 1.00891 3.28895 0.894934 2.85259 0.894934C2.553 0.894934 2.27295 0.963883 2.01244 1.10178C1.75519 1.23968 1.54678 1.43105 1.38722 1.67589C1.23091 1.91792 1.15276 2.19794 1.15276 2.51595V6.56848H0Z" fill="black"/>
<path d="M11.955 9V0.0844275H13.0687V1.11445H13.2054C13.2901 1.00188 13.4073 0.858349 13.5571 0.683865C13.7102 0.506567 13.9284 0.348968 14.2117 0.211069C14.4982 0.0703565 14.8857 0 15.3742 0C16.0059 0 16.5628 0.136491 17.0447 0.409474C17.5267 0.682458 17.9028 1.06942 18.1731 1.57036C18.4433 2.07129 18.5785 2.66229 18.5785 3.34334C18.5785 4.03002 18.4433 4.62524 18.1731 5.12899C17.9028 5.62993 17.5283 6.01829 17.0496 6.29409C16.5709 6.56707 16.019 6.70357 15.3937 6.70357C14.9118 6.70357 14.5259 6.63462 14.2361 6.49672C13.9463 6.356 13.7232 6.197 13.5669 6.0197C13.4106 5.83959 13.2901 5.69043 13.2054 5.57223H13.1078V9H11.955ZM13.0882 3.32645C13.0882 3.81614 13.1713 4.24812 13.3373 4.62242C13.5034 4.9939 13.746 5.28518 14.0651 5.49625C14.3843 5.7045 14.775 5.80863 15.2374 5.80863C15.7194 5.80863 16.1215 5.69887 16.4439 5.47936C16.7696 5.25704 17.0138 4.95872 17.1766 4.58443C17.3427 4.20732 17.4257 3.78799 17.4257 3.32645C17.4257 2.87054 17.3443 2.45966 17.1815 2.09381C17.0219 1.72514 16.7793 1.43386 16.4537 1.21998C16.1313 1.00328 15.7259 0.894934 15.2374 0.894934C14.7685 0.894934 14.3745 0.997655 14.0554 1.2031C13.7362 1.40572 13.4953 1.68996 13.3324 2.05582C13.1696 2.41886 13.0882 2.8424 13.0882 3.32645Z" fill="black"/>
<path d="M22.5447 6.72045C22.0693 6.72045 21.6378 6.64306 21.2503 6.48827C20.8628 6.33068 20.5551 6.10413 20.3272 5.80863C20.0992 5.51032 19.9852 5.15009 19.9852 4.72795C19.9852 4.35647 20.0699 4.05535 20.2392 3.82458C20.4086 3.59099 20.6349 3.40807 20.9182 3.2758C21.2015 3.14353 21.5141 3.04503 21.856 2.9803C22.2012 2.91276 22.548 2.85929 22.8964 2.81989C23.3523 2.76923 23.7219 2.73124 24.0052 2.70591C24.2918 2.67777 24.5002 2.63133 24.6305 2.5666C24.764 2.50188 24.8307 2.38931 24.8307 2.22889V2.19512C24.8307 1.77861 24.6988 1.45497 24.4351 1.2242C24.1746 0.993433 23.7789 0.878049 23.2481 0.878049C22.6978 0.878049 22.2663 0.982176 21.9537 1.19043C21.6411 1.39869 21.4213 1.62101 21.2943 1.85741L20.2002 1.5197C20.3955 1.1257 20.656 0.818949 20.9817 0.599437C21.3106 0.37711 21.6688 0.222326 22.0563 0.135084C22.4471 0.0450281 22.8313 0 23.209 0C23.45 0 23.7268 0.0253282 24.0394 0.0759845C24.3553 0.123827 24.6598 0.223733 24.9528 0.375703C25.2492 0.527673 25.495 0.757036 25.6904 1.06379C25.8858 1.37054 25.9835 1.78143 25.9835 2.29644V6.56848H24.8307V5.69043H24.7721C24.694 5.83114 24.5637 5.98171 24.3813 6.14212C24.199 6.30253 23.9564 6.43902 23.6535 6.5516C23.3507 6.66417 22.9811 6.72045 22.5447 6.72045ZM22.7206 5.82552C23.1765 5.82552 23.5607 5.74812 23.8733 5.59334C24.1892 5.43856 24.4269 5.23874 24.5865 4.9939C24.7493 4.74906 24.8307 4.49156 24.8307 4.22139V3.30957C24.7819 3.36023 24.6744 3.40666 24.5083 3.44887C24.3455 3.48827 24.1567 3.52345 23.9417 3.55441C23.7301 3.58255 23.5233 3.60788 23.3214 3.63039C23.1228 3.65009 22.9616 3.66698 22.8378 3.68105C22.5382 3.71482 22.2582 3.7697 21.9977 3.84569C21.7404 3.91886 21.532 4.03002 21.3724 4.17917C21.2161 4.32552 21.138 4.52533 21.138 4.77861C21.138 5.12477 21.2862 5.38649 21.5825 5.56379C21.8821 5.73827 22.2614 5.82552 22.7206 5.82552Z" fill="black"/>
<path d="M29.2403 2.66792V6.56848H28.0875V0.0844275H29.2012V1.09756H29.2989C29.4747 0.768293 29.7418 0.503752 30.1 0.30394C30.4582 0.101313 30.9206 0 31.4872 0C31.9952 0 32.4397 0.0900562 32.8207 0.270169C33.2017 0.447467 33.498 0.717636 33.7097 1.08068C33.9213 1.4409 34.0272 1.89681 34.0272 2.44841V6.56848H32.8744V2.51595C32.8744 2.00657 32.7213 1.60976 32.4152 1.32552C32.1091 1.03846 31.6891 0.894934 31.155 0.894934C30.7871 0.894934 30.4582 0.963883 30.1683 1.10178C29.8818 1.23968 29.6555 1.4409 29.4894 1.70544C29.3233 1.96998 29.2403 2.29081 29.2403 2.66792Z" fill="black"/>
<path d="M36.6074 9C36.412 9 36.2378 8.98593 36.0848 8.95779C35.9317 8.93246 35.8259 8.90713 35.7673 8.8818L36.0604 8.00375C36.3404 8.06567 36.5879 8.08818 36.8028 8.07129C37.0177 8.05441 37.2082 7.97139 37.3743 7.82223C37.5436 7.67589 37.6983 7.43809 37.8383 7.10882L38.0533 6.60225L35.2788 0.0844275H36.5293L38.6003 5.25141H38.6785L40.7495 0.0844275H42L38.8153 7.51407C38.672 7.84897 38.4945 8.12617 38.2828 8.34569C38.0712 8.56801 37.8253 8.73265 37.5453 8.83959C37.2685 8.94653 36.9559 9 36.6074 9Z" fill="black"/>
</svg>
