<svg width="94" height="48" viewBox="0 0 94 48" fill="none" xmlns="http://www.w3.org/2000/svg">
<path fill-rule="evenodd" clip-rule="evenodd" d="M6.55299 5.90183V13.2199H15.2699V18.6008H6.55299V26.0696H18.1327V31.6657H0.313354V0.305664H18.1327V5.90183H6.55299ZM37.3775 32.0048C37.3775 33.9697 37.1205 35.7854 36.6065 37.4518C36.1019 39.1058 35.387 40.5421 34.4618 41.7608C33.5366 42.9671 32.4198 43.9122 31.1114 44.5962C29.8124 45.2678 28.3685 45.6035 26.7798 45.6035H19.5582V18.4248H26.7798C28.3685 18.4248 29.8124 18.7668 31.1114 19.4508C32.4198 20.1347 33.5366 21.0799 34.4618 22.2862C35.387 23.4924 36.1019 24.9288 36.6065 26.5952C37.1205 28.2492 37.3775 30.0524 37.3775 32.0048ZM32.5272 32.0048C32.5272 30.6618 32.3964 29.4493 32.1347 28.3673C31.8731 27.2854 31.4946 26.3714 30.9992 25.6252C30.5133 24.8666 29.9152 24.2883 29.2049 23.8904C28.4947 23.48 27.6863 23.2748 26.7798 23.2748H24.3244V40.7535H26.7798C27.6863 40.7535 28.4947 40.5545 29.2049 40.1566C29.9152 39.7462 30.5133 39.1679 30.9992 38.4218C31.4946 37.6632 31.8731 36.7429 32.1347 35.661C32.3964 34.5791 32.5272 33.3604 32.5272 32.0048ZM38.4784 6.50105V15.1973H39.8371V9.69421C39.8371 9.30167 39.9331 8.95254 40.125 8.64681C40.3208 8.33731 40.5856 8.09574 40.9195 7.92212C41.2573 7.74472 41.6411 7.65602 42.071 7.65602C42.2514 7.65602 42.4222 7.66924 42.5834 7.69566C42.7484 7.7183 42.854 7.73529 42.9001 7.74661V6.38782C42.8233 6.38027 42.7101 6.37461 42.5604 6.37084C42.4107 6.36706 42.2859 6.36517 42.1861 6.36517C41.6565 6.36517 41.1805 6.49917 40.7583 6.76715C40.3361 7.03513 40.0444 7.38427 39.8832 7.81455H39.7911V6.50105H38.4784ZM20.917 9.96597V15.1973H19.5582V6.50105H20.8709V7.85984H20.986C21.1933 7.41824 21.508 7.06344 21.9303 6.79546C22.3525 6.5237 22.8975 6.38782 23.5653 6.38782C24.1641 6.38782 24.688 6.5086 25.1371 6.75016C25.5862 6.98795 25.9355 7.3503 26.185 7.8372C26.4344 8.32032 26.5592 8.93178 26.5592 9.67156V15.1973H25.2004V9.76215C25.2004 9.07898 25.02 8.54679 24.6592 8.16557C24.2985 7.78058 23.8033 7.58809 23.1738 7.58809C22.7401 7.58809 22.3525 7.68056 22.0109 7.8655C21.6731 8.05045 21.4063 8.32032 21.2106 8.67512C21.0148 9.02991 20.917 9.4602 20.917 9.96597ZM32.7498 15.3785C31.8977 15.3785 31.1627 15.1935 30.5447 14.8236C29.9306 14.45 29.4566 13.9291 29.1227 13.261C28.7926 12.5892 28.6275 11.8079 28.6275 10.9171C28.6275 10.0264 28.7926 9.24128 29.1227 8.56188C29.4566 7.87872 29.921 7.34652 30.5159 6.96531C31.1147 6.58032 31.8133 6.38782 32.6116 6.38782C33.0722 6.38782 33.527 6.46331 33.9761 6.61428C34.4252 6.76526 34.834 7.0106 35.2024 7.3503C35.5709 7.68622 35.8645 8.1316 36.0833 8.68644C36.3021 9.24128 36.4115 9.92445 36.4115 10.7359V11.3021H29.9893C30.0087 11.8807 30.1229 12.377 30.3317 12.7911C30.5658 13.2441 30.8902 13.5894 31.3047 13.8272C31.7192 14.0612 32.2009 14.1782 32.7498 14.1782C33.1068 14.1782 33.4292 14.1292 33.717 14.031C34.0087 13.9291 34.2602 13.7781 34.4713 13.5781C34.6824 13.3743 34.8455 13.1214 34.9606 12.8194L36.2733 13.1818C36.1351 13.6196 35.9029 14.0046 35.5767 14.3367C35.2504 14.6651 34.8474 14.9218 34.3676 15.1067C33.8878 15.2879 33.3486 15.3785 32.7498 15.3785ZM30.3029 9.00349C30.122 9.36253 30.0186 9.74375 29.9927 10.1471H35.0297C35.0297 9.65647 34.9299 9.21863 34.7303 8.83364C34.5346 8.44865 34.2544 8.14481 33.8898 7.92212C33.529 7.69943 33.1029 7.58809 32.6116 7.58809C32.0704 7.58809 31.6022 7.72019 31.2068 7.9844C30.8153 8.24483 30.514 8.58453 30.3029 9.00349ZM47.8111 18.6396C47.1548 18.6396 46.5905 18.5565 46.1184 18.3905C45.6463 18.2282 45.2529 18.013 44.9382 17.745C44.6273 17.4808 44.3797 17.1978 44.1955 16.8958L45.2779 16.1485C45.4007 16.307 45.5561 16.4882 45.7442 16.692C45.9323 16.8996 46.1894 17.0789 46.5157 17.2298C46.8458 17.3846 47.2776 17.462 47.8111 17.462C48.525 17.462 49.1142 17.2921 49.5786 16.9524C50.043 16.6127 50.2753 16.0805 50.2753 15.3558V13.5894H50.1601C50.0603 13.7479 49.9183 13.9442 49.7341 14.1782C49.5537 14.4085 49.2927 14.6142 48.9511 14.7953C48.6133 14.9727 48.1565 15.0614 47.5808 15.0614C46.8669 15.0614 46.2259 14.8954 45.6578 14.5632C45.0936 14.2311 44.6465 13.7479 44.3164 13.1138C43.9901 12.4797 43.827 11.7098 43.827 10.8039C43.827 9.91313 43.9863 9.13748 44.3049 8.47696C44.6234 7.81266 45.0667 7.29934 45.6348 6.937C46.2029 6.57088 46.8592 6.38782 47.6038 6.38782C48.1796 6.38782 48.6363 6.48218 48.9741 6.6709C49.3157 6.85585 49.5767 7.06722 49.7571 7.305C49.9413 7.53902 50.0833 7.73151 50.1831 7.88249H50.3213V6.50105H51.634V15.4464C51.634 16.1938 51.4613 16.8014 51.1158 17.2695C50.7742 17.7413 50.3136 18.0866 49.7341 18.3055C49.1583 18.5282 48.5173 18.6396 47.8111 18.6396ZM47.765 13.8612C48.3101 13.8612 48.7707 13.7385 49.1468 13.4932C49.523 13.2478 49.8089 12.8949 50.0047 12.4344C50.2004 11.974 50.2983 11.4229 50.2983 10.7812C50.2983 10.1547 50.2023 9.60174 50.0104 9.12239C49.8185 8.64303 49.5345 8.26748 49.1583 7.99572C48.7822 7.72396 48.3177 7.58809 47.765 7.58809C47.1893 7.58809 46.7095 7.73151 46.3257 8.01837C45.9457 8.30522 45.6598 8.69022 45.4678 9.17334C45.2798 9.65647 45.1857 10.1924 45.1857 10.7812C45.1857 11.3851 45.2817 11.9192 45.4736 12.3835C45.6694 12.844 45.9572 13.2063 46.3372 13.4705C46.721 13.731 47.197 13.8612 47.765 13.8612ZM54.3803 18.4018C54.5607 18.4395 54.766 18.4584 54.9963 18.4584C55.407 18.4584 55.7755 18.3867 56.1017 18.2433C56.4318 18.0998 56.7216 17.879 56.9711 17.5809C57.2206 17.2865 57.4298 16.9147 57.5986 16.4655L61.3524 6.50105H59.8786L57.4374 13.4309H57.3453L54.9042 6.50105H53.4303L56.7005 15.2426L56.4472 15.922C56.2821 16.3636 56.0998 16.6825 55.9002 16.8788C55.7045 17.0789 55.4799 17.1902 55.2266 17.2129C54.9733 17.2355 54.6816 17.2053 54.3515 17.1223L54.006 18.2999C54.0751 18.3339 54.1999 18.3678 54.3803 18.4018ZM38.9818 25.5167V31.4198H39.8603V25.5167H38.9818ZM38.9855 24.3522C39.1096 24.4727 39.2572 24.5329 39.4285 24.5329C39.5997 24.5329 39.7461 24.4727 39.8677 24.3522C39.9918 24.2318 40.0538 24.0871 40.0538 23.918C40.0538 23.7489 39.9918 23.6041 39.8677 23.4837C39.7461 23.3633 39.5997 23.3031 39.4285 23.3031C39.2572 23.3031 39.1096 23.3633 38.9855 23.4837C38.8639 23.6041 38.8031 23.7489 38.8031 23.918C38.8031 24.0871 38.8639 24.2318 38.9855 24.3522ZM42.6827 33.5873C42.9879 33.7 43.3527 33.7564 43.7771 33.7564C44.2337 33.7564 44.6481 33.6808 45.0203 33.5297C45.395 33.3811 45.6928 33.1466 45.9137 32.8264C46.137 32.5087 46.2487 32.0962 46.2487 31.5889V25.5167H45.4V26.4544H45.3106C45.2461 26.3519 45.1543 26.2213 45.0352 26.0624C44.9186 25.901 44.7498 25.7575 44.529 25.632C44.3106 25.5039 44.0153 25.4398 43.643 25.4398C43.1616 25.4398 42.7373 25.5641 42.37 25.8126C42.0028 26.0586 41.7161 26.407 41.5102 26.858C41.3042 27.3063 41.2012 27.8328 41.2012 28.4375C41.2012 29.0524 41.3067 29.5751 41.5176 30.0055C41.731 30.4359 42.0201 30.7639 42.3849 30.9893C42.7522 31.2148 43.1666 31.3275 43.6282 31.3275C44.0004 31.3275 44.2957 31.2673 44.5141 31.1469C44.7349 31.0239 44.9037 30.8843 45.0203 30.728C45.1394 30.5692 45.2312 30.4359 45.2957 30.3283H45.3702V31.5274C45.3702 32.0193 45.2201 32.3806 44.9198 32.6111C44.6195 32.8417 44.2386 32.957 43.7771 32.957C43.4321 32.957 43.1529 32.9045 42.9395 32.7995C42.7286 32.697 42.5623 32.5753 42.4407 32.4344C42.3191 32.296 42.2186 32.173 42.1392 32.0654L41.4394 32.5727C41.5586 32.7777 41.7186 32.9698 41.9196 33.1492C42.1231 33.3311 42.3775 33.4771 42.6827 33.5873ZM44.6406 30.263C44.3974 30.4295 44.0997 30.5128 43.7473 30.5128C43.38 30.5128 43.0723 30.4244 42.8241 30.2476C42.5785 30.0683 42.3924 29.8223 42.2658 29.5097C42.1417 29.1946 42.0797 28.8321 42.0797 28.4221C42.0797 28.0224 42.1405 27.6586 42.2621 27.3307C42.3861 27.0027 42.571 26.7414 42.8167 26.5467C43.0648 26.3519 43.375 26.2546 43.7473 26.2546C44.1046 26.2546 44.4049 26.3468 44.6481 26.5313C44.8913 26.7158 45.0749 26.9707 45.199 27.2961C45.323 27.6215 45.3851 27.9968 45.3851 28.4221C45.3851 28.8577 45.3218 29.2317 45.1952 29.5443C45.0687 29.8569 44.8838 30.0965 44.6406 30.263ZM47.8567 31.4198V25.5167H48.7352V31.4198H47.8567ZM48.3034 24.5329C48.1321 24.5329 47.9845 24.4727 47.8604 24.3522C47.7388 24.2318 47.678 24.0871 47.678 23.918C47.678 23.7489 47.7388 23.6041 47.8604 23.4837C47.9845 23.3633 48.1321 23.3031 48.3034 23.3031C48.4746 23.3031 48.621 23.3633 48.7426 23.4837C48.8667 23.6041 48.9287 23.7489 48.9287 23.918C48.9287 24.0871 48.8667 24.2318 48.7426 24.3522C48.621 24.4727 48.4746 24.5329 48.3034 24.5329ZM52.8306 26.2853V25.5167H51.6097V24.1024H50.7313V25.5167H49.8677V26.2853H50.7313V29.9748C50.7313 30.3181 50.8082 30.6025 50.962 30.8279C51.1184 31.0534 51.3144 31.2212 51.5502 31.3314C51.7884 31.4416 52.0316 31.4966 52.2797 31.4966C52.4435 31.4966 52.5788 31.4838 52.6855 31.4582C52.7922 31.4351 52.8753 31.4121 52.9349 31.389L52.7562 30.5743L52.6073 30.605C52.5453 30.6153 52.4658 30.6204 52.3691 30.6204C52.24 30.6204 52.1172 30.5999 52.0006 30.5589C51.8864 30.5154 51.7921 30.4308 51.7177 30.3053C51.6457 30.1772 51.6097 29.985 51.6097 29.7288V26.2853H52.8306ZM55.8345 31.5581C55.4722 31.5581 55.1434 31.4877 54.8481 31.3468C54.5528 31.2033 54.3183 30.997 54.1446 30.728C53.9709 30.4564 53.884 30.1285 53.884 29.7442C53.884 29.406 53.9486 29.1318 54.0776 28.9217C54.2066 28.7091 54.3791 28.5425 54.595 28.4221C54.8109 28.3017 55.0491 28.212 55.3097 28.1531C55.5727 28.0916 55.837 28.0429 56.1025 28.0071C56.45 27.9609 56.7316 27.9264 56.9475 27.9033C57.1659 27.8777 57.3247 27.8354 57.424 27.7765C57.5257 27.7175 57.5766 27.6151 57.5766 27.469V27.4383C57.5766 27.0591 57.4761 26.7644 57.2751 26.5544C57.0765 26.3443 56.775 26.2392 56.3705 26.2392C55.9512 26.2392 55.6224 26.334 55.3841 26.5236C55.1459 26.7132 54.9784 26.9156 54.8816 27.1308L54.0478 26.8234C54.1967 26.4647 54.3952 26.1854 54.6434 25.9856C54.894 25.7832 55.167 25.6422 55.4623 25.5628C55.7601 25.4808 56.0529 25.4398 56.3408 25.4398C56.5244 25.4398 56.7353 25.4629 56.9736 25.509C57.2143 25.5526 57.4463 25.6435 57.6696 25.7819C57.8955 25.9202 58.0828 26.129 58.2317 26.4083C58.3806 26.6876 58.455 27.0616 58.455 27.5305V31.4198H57.5766V30.6204H57.5319C57.4724 30.7485 57.3731 30.8856 57.2341 31.0316C57.0952 31.1777 56.9103 31.3019 56.6795 31.4044C56.4487 31.5069 56.1671 31.5581 55.8345 31.5581ZM55.9685 30.7434C56.316 30.7434 56.6088 30.6729 56.847 30.532C57.0877 30.3911 57.2689 30.2092 57.3905 29.9863C57.5145 29.7634 57.5766 29.5289 57.5766 29.283V28.4529C57.5394 28.499 57.4575 28.5413 57.3309 28.5797C57.2068 28.6156 57.0629 28.6476 56.8991 28.6758C56.7378 28.7014 56.5802 28.7245 56.4264 28.7449C56.275 28.7629 56.1522 28.7783 56.0579 28.7911C55.8296 28.8218 55.6162 28.8718 55.4176 28.9409C55.2216 29.0076 55.0628 29.1088 54.9412 29.2446C54.8221 29.3778 54.7625 29.5597 54.7625 29.7903C54.7625 30.1054 54.8754 30.3437 55.1012 30.5051C55.3295 30.664 55.6186 30.7434 55.9685 30.7434ZM60.9369 31.4198V23.549H60.0584V31.4198H60.9369ZM62.5459 31.4198V25.5167H63.4243V31.4198H62.5459ZM62.9925 24.5329C62.8213 24.5329 62.6737 24.4727 62.5496 24.3522C62.428 24.2318 62.3672 24.0871 62.3672 23.918C62.3672 23.7489 62.428 23.6041 62.5496 23.4837C62.6737 23.3633 62.8213 23.3031 62.9925 23.3031C63.1638 23.3031 63.3102 23.3633 63.4318 23.4837C63.5558 23.6041 63.6179 23.7489 63.6179 23.918C63.6179 24.0871 63.5558 24.2318 63.4318 24.3522C63.3102 24.4727 63.1638 24.5329 62.9925 24.5329ZM64.8695 30.728V31.4198H69.3512V30.5743H66.0904V30.5128L69.2469 26.2392V25.5167H64.9737V26.3622H68.1154V26.4237L64.8695 30.728ZM72.3867 31.5581C72.0244 31.5581 71.6956 31.4877 71.4003 31.3468C71.105 31.2033 70.8705 30.997 70.6968 30.728C70.5231 30.4564 70.4362 30.1285 70.4362 29.7442C70.4362 29.406 70.5007 29.1318 70.6298 28.9217C70.7588 28.7091 70.9313 28.5425 71.1472 28.4221C71.3631 28.3017 71.6013 28.212 71.8619 28.1531C72.1249 28.0916 72.3892 28.0429 72.6547 28.0071C73.0021 27.9609 73.2838 27.9264 73.4997 27.9033C73.7181 27.8777 73.8769 27.8354 73.9761 27.7765C74.0779 27.7175 74.1287 27.6151 74.1287 27.469V27.4383C74.1287 27.0591 74.0282 26.7644 73.8272 26.5544C73.6287 26.3443 73.3272 26.2392 72.9227 26.2392C72.5033 26.2392 72.1745 26.334 71.9363 26.5236C71.6981 26.7132 71.5306 26.9156 71.4338 27.1308L70.6 26.8234C70.7489 26.4647 70.9474 26.1854 71.1956 25.9856C71.4462 25.7832 71.7192 25.6422 72.0145 25.5628C72.3123 25.4808 72.6051 25.4398 72.8929 25.4398C73.0766 25.4398 73.2875 25.4629 73.5257 25.509C73.7664 25.5526 73.9985 25.6435 74.2218 25.7819C74.4476 25.9202 74.635 26.129 74.7839 26.4083C74.9328 26.6876 75.0072 27.0616 75.0072 27.5305V31.4198H74.1287V30.6204H74.0841C74.0245 30.7485 73.9253 30.8856 73.7863 31.0316C73.6473 31.1777 73.4625 31.3019 73.2317 31.4044C73.0009 31.5069 72.7192 31.5581 72.3867 31.5581ZM72.5207 30.7434C72.8681 30.7434 73.1609 30.6729 73.3992 30.532C73.6399 30.3911 73.821 30.2092 73.9426 29.9863C74.0667 29.7634 74.1287 29.5289 74.1287 29.283V28.4529C74.0915 28.499 74.0096 28.5413 73.8831 28.5797C73.759 28.6156 73.6151 28.6476 73.4513 28.6758C73.29 28.7014 73.1324 28.7245 72.9786 28.7449C72.8272 28.7629 72.7043 28.7783 72.61 28.7911C72.3817 28.8218 72.1683 28.8718 71.9698 28.9409C71.7738 29.0076 71.615 29.1088 71.4934 29.2446C71.3742 29.3778 71.3147 29.5597 71.3147 29.7903C71.3147 30.1054 71.4276 30.3437 71.6534 30.5051C71.8817 30.664 72.1708 30.7434 72.5207 30.7434ZM79.0971 26.2853V25.5167H77.8762V24.1024H76.9977V25.5167H76.1341V26.2853H76.9977V29.9748C76.9977 30.3181 77.0746 30.6025 77.2285 30.8279C77.3848 31.0534 77.5809 31.2212 77.8166 31.3314C78.0548 31.4416 78.298 31.4966 78.5462 31.4966C78.71 31.4966 78.8452 31.4838 78.9519 31.4582C79.0586 31.4351 79.1418 31.4121 79.2013 31.389L79.0227 30.5743L78.8738 30.605C78.8117 30.6153 78.7323 30.6204 78.6355 30.6204C78.5065 30.6204 78.3837 30.5999 78.267 30.5589C78.1529 30.5154 78.0586 30.4308 77.9841 30.3053C77.9122 30.1772 77.8762 29.985 77.8762 29.7288V26.2853H79.0971ZM80.4185 31.4198V25.5167H81.297V31.4198H80.4185ZM80.8652 24.5329C80.694 24.5329 80.5463 24.4727 80.4222 24.3522C80.3006 24.2318 80.2398 24.0871 80.2398 23.918C80.2398 23.7489 80.3006 23.6041 80.4222 23.4837C80.5463 23.3633 80.694 23.3031 80.8652 23.3031C81.0364 23.3031 81.1828 23.3633 81.3044 23.4837C81.4285 23.6041 81.4905 23.7489 81.4905 23.918C81.4905 24.0871 81.4285 24.2318 81.3044 24.3522C81.1828 24.4727 81.0364 24.5329 80.8652 24.5329ZM83.87 31.1623C84.2596 31.4159 84.7125 31.5428 85.2287 31.5428C85.7448 31.5428 86.1965 31.4159 86.5836 31.1623C86.9732 30.9086 87.2759 30.5538 87.4918 30.0977C87.7102 29.6417 87.8194 29.1088 87.8194 28.499C87.8194 27.8841 87.7102 27.3473 87.4918 26.8887C87.2759 26.4301 86.9732 26.074 86.5836 25.8203C86.1965 25.5667 85.7448 25.4398 85.2287 25.4398C84.7125 25.4398 84.2596 25.5667 83.87 25.8203C83.4829 26.074 83.1802 26.4301 82.9618 26.8887C82.7459 27.3473 82.6379 27.8841 82.6379 28.499C82.6379 29.1088 82.7459 29.6417 82.9618 30.0977C83.1802 30.5538 83.4829 30.9086 83.87 31.1623ZM86.1965 30.4167C85.9434 30.6242 85.6208 30.728 85.2287 30.728C84.8366 30.728 84.514 30.6242 84.2609 30.4167C84.0078 30.2092 83.8204 29.9363 83.6988 29.5981C83.5772 29.2599 83.5164 28.8935 83.5164 28.499C83.5164 28.1044 83.5772 27.7368 83.6988 27.396C83.8204 27.0552 84.0078 26.7798 84.2609 26.5697C84.514 26.3596 84.8366 26.2546 85.2287 26.2546C85.6208 26.2546 85.9434 26.3596 86.1965 26.5697C86.4496 26.7798 86.6369 27.0552 86.7585 27.396C86.8801 27.7368 86.9409 28.1044 86.9409 28.499C86.9409 28.8935 86.8801 29.2599 86.7585 29.5981C86.6369 29.9363 86.4496 30.2092 86.1965 30.4167ZM90.0388 27.8687V31.4198H89.1604V25.5167H90.009V26.4391H90.0835C90.2175 26.1393 90.421 25.8985 90.6939 25.7165C90.9669 25.5321 91.3193 25.4398 91.7511 25.4398C92.1382 25.4398 92.4769 25.5218 92.7673 25.6858C93.0576 25.8472 93.2834 26.0932 93.4447 26.4237C93.606 26.7516 93.6867 27.1667 93.6867 27.6689V31.4198H92.8082V27.7304C92.8082 27.2666 92.6916 26.9054 92.4583 26.6466C92.2251 26.3853 91.9049 26.2546 91.498 26.2546C91.2176 26.2546 90.9669 26.3174 90.7461 26.4429C90.5277 26.5684 90.3552 26.7516 90.2287 26.9925C90.1021 27.2333 90.0388 27.5254 90.0388 27.8687ZM57.0652 36.9395C56.4085 36.6758 55.6706 36.544 54.8516 36.544C54.0252 36.544 53.2799 36.6758 52.6159 36.9395C51.9592 37.2032 51.3984 37.5774 50.9335 38.062C50.4687 38.5467 50.1108 39.1347 49.8599 39.826C49.6165 40.5102 49.4947 41.2763 49.4947 42.1244C49.4947 42.9797 49.6165 43.7494 49.8599 44.4336C50.1108 45.1178 50.4687 45.7022 50.9335 46.1869C51.3984 46.6715 51.9592 47.0457 52.6159 47.3094C53.2799 47.5659 54.0252 47.6942 54.8516 47.6942C55.6706 47.6942 56.4085 47.5659 57.0652 47.3094C57.7219 47.0457 58.2826 46.6715 58.7475 46.1869C59.2123 45.7022 59.5665 45.1178 59.81 44.4336C60.0609 43.7494 60.1863 42.9797 60.1863 42.1244C60.1863 41.2763 60.0609 40.5102 59.81 39.826C59.5665 39.1347 59.2123 38.5467 58.7475 38.062C58.2826 37.5774 57.7219 37.2032 57.0652 36.9395ZM57.3308 45.1392C56.7848 45.8519 55.9584 46.2082 54.8516 46.2082C53.73 46.2082 52.8926 45.8519 52.3392 45.1392C51.7931 44.4193 51.5201 43.418 51.5201 42.1351C51.5201 41.4937 51.5865 40.92 51.7194 40.414C51.8596 39.9008 52.0662 39.4696 52.3392 39.1204C52.6195 38.7712 52.9663 38.5039 53.3795 38.3186C53.8001 38.1333 54.2908 38.0407 54.8516 38.0407C55.9584 38.0407 56.7848 38.4006 57.3308 39.1204C57.8768 39.8402 58.1498 40.8451 58.1498 42.1351C58.1498 43.418 57.8768 44.4193 57.3308 45.1392ZM48.116 38.6393C48.0559 38.7177 47.9957 38.7783 47.9355 38.8211C47.8753 38.8638 47.7925 38.8852 47.6872 38.8852C47.5743 38.8852 47.4502 38.8424 47.3147 38.7569C47.1793 38.6643 47.01 38.5645 46.8068 38.4576C46.6112 38.3507 46.3667 38.2545 46.0732 38.1689C45.7873 38.0763 45.4337 38.03 45.0123 38.03C44.448 38.03 43.9514 38.1262 43.5225 38.3186C43.0936 38.5039 42.7325 38.7747 42.439 39.1311C42.1531 39.4874 41.9349 39.9186 41.7844 40.4246C41.6415 40.9307 41.57 41.4973 41.57 42.1244C41.57 42.7801 41.649 43.3645 41.807 43.8777C41.965 44.3837 42.187 44.8113 42.4729 45.1606C42.7663 45.5027 43.1162 45.7664 43.5225 45.9517C43.9364 46.1298 44.3991 46.2189 44.9107 46.2189C45.3998 46.2189 45.8024 46.1655 46.1184 46.0586C46.4344 45.9445 46.694 45.8198 46.8971 45.6844C47.1078 45.549 47.2809 45.4278 47.4163 45.3209C47.5593 45.2069 47.6985 45.1499 47.8339 45.1499C47.9994 45.1499 48.1273 45.2105 48.2176 45.3316L48.7819 46.0265C48.5336 46.3187 48.2515 46.5682 47.9355 46.7748C47.6194 46.9815 47.2771 47.1561 46.9084 47.2987C46.5473 47.4341 46.1673 47.5339 45.7685 47.598C45.3697 47.6622 44.9634 47.6942 44.5496 47.6942C43.8348 47.6942 43.1689 47.5695 42.5519 47.3201C41.9424 47.0706 41.412 46.7107 40.9605 46.2403C40.5091 45.7628 40.1554 45.1784 39.8996 44.4871C39.6438 43.7957 39.5159 43.0082 39.5159 42.1244C39.5159 41.3191 39.6325 40.5743 39.8658 39.8901C40.1065 39.2059 40.4526 38.6179 40.9041 38.1262C41.3631 37.6273 41.9236 37.2389 42.5858 36.9609C43.2554 36.683 44.0229 36.544 44.8882 36.544C45.6933 36.544 46.4005 36.6687 47.01 36.9181C47.627 37.1605 48.1725 37.5061 48.6465 37.9551L48.116 38.6393ZM61.6119 45.9997V41.481H62.4057V42.1871H62.4753C62.5867 41.9458 62.7666 41.7585 63.0149 41.6252C63.2633 41.4899 63.5616 41.4222 63.9097 41.4222C64.2625 41.4222 64.5561 41.4899 64.7906 41.6252C65.0273 41.7585 65.2118 41.9458 65.3441 42.1871H65.3998C65.5368 41.9537 65.7422 41.7684 66.0161 41.6311C66.29 41.4918 66.6184 41.4222 67.0014 41.4222C67.4795 41.4222 67.8706 41.5487 68.1747 41.8017C68.4787 42.0527 68.6308 42.444 68.6308 42.9755V45.9997H67.8091V42.9755C67.8091 42.6421 67.7012 42.4038 67.4853 42.2606C67.2695 42.1175 67.0153 42.0459 66.7228 42.0459C66.3468 42.0459 66.0555 42.142 65.849 42.3342C65.6424 42.5244 65.5391 42.7656 65.5391 43.0579V45.9997H64.7035V42.9049C64.7035 42.648 64.6049 42.4411 64.4076 42.2842C64.2103 42.1253 63.9561 42.0459 63.6451 42.0459C63.4316 42.0459 63.232 42.0939 63.0463 42.19C62.8629 42.2861 62.7144 42.4195 62.6006 42.5901C62.4892 42.7588 62.4335 42.9539 62.4335 43.1755V45.9997H61.6119ZM70.1331 47.6942V41.481H70.9269V42.1988H71.0244C71.0847 42.1204 71.1683 42.0204 71.275 41.8988C71.3841 41.7752 71.5396 41.6654 71.7416 41.5693C71.9458 41.4712 72.222 41.4222 72.5702 41.4222C73.0205 41.4222 73.4174 41.5173 73.7609 41.7076C74.1044 41.8978 74.3725 42.1675 74.5651 42.5166C74.7578 42.8657 74.8541 43.2775 74.8541 43.7521C74.8541 44.2307 74.7578 44.6455 74.5651 44.9965C74.3725 45.3456 74.1056 45.6163 73.7644 45.8085C73.4232 45.9987 73.0298 46.0938 72.5841 46.0938C72.2406 46.0938 71.9655 46.0458 71.759 45.9497C71.5524 45.8516 71.3934 45.7408 71.282 45.6173C71.1706 45.4917 71.0847 45.3878 71.0244 45.3054H70.9547V47.6942H70.1331ZM70.9408 43.7404C70.9408 44.0816 71 44.3827 71.1184 44.6435C71.2367 44.9024 71.4097 45.1054 71.6371 45.2525C71.8646 45.3976 72.1431 45.4702 72.4727 45.4702C72.8162 45.4702 73.1029 45.3937 73.3326 45.2407C73.5648 45.0858 73.7388 44.8779 73.8549 44.617C73.9733 44.3542 74.0324 44.062 74.0324 43.7404C74.0324 43.4226 73.9744 43.1363 73.8584 42.8814C73.7446 42.6244 73.5717 42.4214 73.3396 42.2724C73.1098 42.1214 72.8209 42.0459 72.4727 42.0459C72.1385 42.0459 71.8576 42.1175 71.6301 42.2606C71.4027 42.4018 71.2309 42.5999 71.1149 42.8549C70.9988 43.1079 70.9408 43.403 70.9408 43.7404ZM76.7585 45.9438C77.0347 46.0517 77.3423 46.1056 77.6812 46.1056C77.9922 46.1056 78.2556 46.0664 78.4715 45.9879C78.6873 45.9095 78.8603 45.8144 78.9902 45.7026C79.1202 45.5908 79.2131 45.4859 79.2688 45.3878H79.3105V45.9997H80.1322V43.0226C80.1322 42.6637 80.0626 42.3773 79.9233 42.1635C79.784 41.9498 79.6088 41.7899 79.3976 41.684C79.1887 41.5781 78.9717 41.5085 78.7465 41.4751C78.5237 41.4398 78.3264 41.4222 78.1547 41.4222C77.8854 41.4222 77.6115 41.4536 77.333 41.5163C77.0568 41.5771 76.8015 41.685 76.5671 41.8399C76.3349 41.9929 76.1493 42.2067 76.01 42.4813L76.7899 42.7166C76.8804 42.5519 77.0371 42.3969 77.2599 42.2518C77.4827 42.1067 77.7903 42.0341 78.1825 42.0341C78.5608 42.0341 78.8429 42.1145 79.0285 42.2753C79.2165 42.4361 79.3105 42.6617 79.3105 42.952V42.9755C79.3105 43.0873 79.263 43.1657 79.1678 43.2108C79.075 43.2559 78.9264 43.2883 78.7222 43.3079C78.5202 43.3256 78.2568 43.352 77.9318 43.3873C77.6835 43.4148 77.4363 43.4521 77.1903 43.4991C76.9465 43.5442 76.7237 43.6129 76.5218 43.7051C76.3199 43.7972 76.1585 43.9247 76.0378 44.0875C75.9172 44.2483 75.8568 44.4582 75.8568 44.7171C75.8568 45.0112 75.938 45.2623 76.1005 45.4702C76.263 45.6761 76.4823 45.834 76.7585 45.9438ZM78.6282 45.3201C78.4053 45.428 78.1314 45.4819 77.8065 45.4819C77.4792 45.4819 77.2088 45.4211 76.9953 45.2995C76.7841 45.176 76.6785 44.9936 76.6785 44.7524C76.6785 44.5759 76.7342 44.4366 76.8456 44.3346C76.9593 44.2307 77.1079 44.1532 77.2912 44.1022C77.4769 44.0493 77.6765 44.011 77.8901 43.9875C77.9783 43.9777 78.0931 43.9659 78.2347 43.9522C78.3786 43.9365 78.526 43.9188 78.6769 43.8992C78.8301 43.8777 78.9647 43.8531 79.0808 43.8257C79.1991 43.7963 79.2757 43.7639 79.3105 43.7286V44.364C79.3105 44.5523 79.2525 44.7318 79.1365 44.9024C79.0227 45.073 78.8533 45.2123 78.6282 45.3201ZM82.4536 43.2814V45.9997H81.6319V41.481H82.4257V42.1871H82.4953C82.6207 41.9576 82.811 41.7733 83.0663 41.634C83.3216 41.4928 83.6512 41.4222 84.0551 41.4222C84.4172 41.4222 84.734 41.485 85.0056 41.6105C85.2771 41.734 85.4883 41.9223 85.6392 42.1753C85.7901 42.4263 85.8655 42.7441 85.8655 43.1285V45.9997H85.0439V43.1755C85.0439 42.8206 84.9348 42.544 84.7166 42.3459C84.4984 42.1459 84.199 42.0459 83.8183 42.0459C83.5561 42.0459 83.3216 42.0939 83.1151 42.19C82.9108 42.2861 82.7495 42.4263 82.6311 42.6107C82.5127 42.7951 82.4536 43.0186 82.4536 43.2814ZM87.3321 47.6648C87.4412 47.6844 87.5654 47.6942 87.7047 47.6942C87.953 47.6942 88.1758 47.6569 88.3731 47.5824C88.5728 47.5079 88.748 47.3932 88.8989 47.2382C89.0497 47.0852 89.1762 46.8921 89.2784 46.6587L91.5483 41.481H90.6571L89.1809 45.0819H89.1252L87.649 41.481H86.7577L88.7352 46.0232L88.582 46.3763C88.4822 46.6057 88.372 46.7715 88.2513 46.8734C88.1329 46.9774 87.9971 47.0352 87.8439 47.047C87.6908 47.0588 87.5143 47.0431 87.3147 46.9999L87.1058 47.6118C87.1476 47.6295 87.2231 47.6471 87.3321 47.6648ZM88.1298 0.967505C87.8791 0.99375 87.3627 1.10165 87.1061 1.18038C86.73 1.29994 86.1718 1.57698 85.8316 1.81318C85.4704 2.06688 84.9779 2.54805 84.7183 2.9009C83.5423 4.51935 83.5423 6.70645 84.7183 8.3249C84.8317 8.47653 85.0615 8.73899 85.2346 8.90812C86.3897 10.0337 87.9925 10.4974 89.6222 10.1737C90.1863 10.06 90.8818 9.75963 91.3832 9.41261C91.7444 9.15891 92.2369 8.67775 92.4935 8.3249C92.8845 7.78541 93.1621 7.15553 93.2994 6.4819C93.3949 6.00949 93.3949 5.2163 93.2994 4.74389C93.2039 4.28606 93.0815 3.93321 92.8756 3.52787C92.6398 3.06712 92.3622 2.69385 91.9802 2.31767C91.0609 1.4195 89.8461 0.932511 88.5626 0.952924C88.3835 0.952924 88.1865 0.961672 88.1298 0.967505ZM89.3685 1.74903C89.8998 1.85401 90.4221 2.06688 90.8758 2.36141C91.2161 2.58012 91.7265 3.09336 91.9623 3.44621C92.4279 4.14317 92.6219 4.77597 92.6219 5.6129C92.6219 5.95992 92.607 6.16405 92.5682 6.34193C92.3951 7.15844 92.0339 7.81166 91.4459 8.38614C90.8579 8.96061 90.1893 9.31346 89.3536 9.4826C89.0014 9.55259 88.2134 9.55259 87.8612 9.4826C87.0255 9.31346 86.3569 8.96061 85.7689 8.38614C85.1809 7.81166 84.8197 7.15844 84.6466 6.34193C84.575 5.99783 84.575 5.22797 84.6466 4.88386C84.8197 4.06735 85.1809 3.41414 85.7689 2.83966C86.4315 2.18936 87.2404 1.80735 88.1895 1.69362C88.4044 1.66738 89.1387 1.70237 89.3685 1.74903ZM86.9153 3.90115C87.2525 3.58913 87.6197 3.39666 88.0853 3.29168C88.2047 3.26544 88.3957 3.25377 88.6524 3.26252C88.9956 3.27127 89.0732 3.28293 89.324 3.36459C89.6732 3.47831 89.9567 3.64162 90.1955 3.85741C90.3537 4.00322 90.3746 4.03821 90.3865 4.15486C90.4044 4.31233 90.3597 4.40564 90.2224 4.49604C90.0403 4.6156 89.9388 4.58936 89.6254 4.33857C88.9658 3.81367 88.0107 3.86324 87.3958 4.46105C86.7362 5.1026 86.7362 6.12324 87.3958 6.76479C88.0107 7.3626 88.9658 7.41217 89.6254 6.88727C89.9388 6.63648 90.0403 6.61024 90.2224 6.7298C90.3597 6.8202 90.4044 6.91351 90.3865 7.07098C90.3746 7.18763 90.3537 7.22262 90.1955 7.36843C89.9597 7.58422 89.6762 7.74461 89.324 7.86417C89.0523 7.95457 89.0225 7.9604 88.5778 7.9604C88.133 7.9604 88.1032 7.95457 87.8316 7.86417C87.4615 7.73878 87.1898 7.57839 86.9182 7.32469C86.4138 6.86102 86.1601 6.28363 86.1601 5.61292C86.1601 4.94513 86.4138 4.36482 86.9153 3.90115Z" fill="black"/>
</svg>
