<svg width="14" height="24" viewBox="0 0 14 24" fill="none" xmlns="http://www.w3.org/2000/svg">
<path d="M12.6296 0.0049936L9.51733 0C6.0208 0 3.76119 2.31829 3.76119 5.90643V8.6297H0.631951C0.361548 8.6297 0.142578 8.84891 0.142578 9.11931V13.065C0.142578 13.3355 0.361797 13.5544 0.631951 13.5544H3.76119V23.5107C3.76119 23.7811 3.98016 24 4.25056 24H8.33333C8.60373 24 8.82271 23.7808 8.82271 23.5107V13.5544H12.4815C12.7519 13.5544 12.9709 13.3355 12.9709 13.065L12.9724 9.11931C12.9724 8.98947 12.9207 8.86515 12.8291 8.77325C12.7374 8.68138 12.6126 8.6297 12.4828 8.6297H8.82271V6.32115C8.82271 5.21157 9.08712 4.64829 10.5325 4.64829L12.6291 4.64755C12.8992 4.64755 13.1182 4.42832 13.1182 4.15818V0.494366C13.1182 0.224462 12.8995 0.00549296 12.6296 0.0049936Z" fill="black"/>
</svg>
