<svg width="16" height="16" viewBox="0 0 16 16" fill="none" xmlns="http://www.w3.org/2000/svg">
<path d="M15.3297 15.3333V15.3327H15.3334V9.95367C15.3334 7.32222 14.7669 5.29517 11.6905 5.29517C10.2117 5.29517 9.21921 6.10672 8.81404 6.87611H8.77126V5.54083H5.85443V15.3327H8.89165V10.4841C8.89165 9.2075 9.13365 7.97306 10.7146 7.97306C12.2723 7.97306 12.2955 9.42994 12.2955 10.566V15.3333H15.3297Z" fill="white"/>
<path d="M0.908752 5.5415H3.94964V15.3333H0.908752V5.5415Z" fill="white"/>
<path d="M2.42791 0.666748C1.45563 0.666748 0.666687 1.45569 0.666687 2.42797C0.666687 3.40025 1.45563 4.20569 2.42791 4.20569C3.40019 4.20569 4.18913 3.40025 4.18913 2.42797C4.18852 1.45569 3.39958 0.666748 2.42791 0.666748V0.666748Z" fill="white"/>
</svg>
