<svg width="72" height="42" viewBox="0 0 72 42" fill="none" xmlns="http://www.w3.org/2000/svg">
<path d="M65.9307 28.8C66.7704 28.8 67.5268 28.9533 68.2001 29.2599C68.8734 29.5664 69.4483 30.0013 69.9249 30.5647C70.4015 31.1281 70.7646 31.8116 71.0143 32.6152C71.2715 33.4105 71.4001 34.3011 71.4001 35.287C71.4001 36.2812 71.2715 37.1759 71.0143 37.9713C70.7646 38.7666 70.4015 39.4459 69.9249 40.0093C69.4483 40.5727 68.8734 41.0076 68.2001 41.3142C67.5268 41.6124 66.7704 41.7615 65.9307 41.7615C65.0834 41.7615 64.3193 41.6124 63.6385 41.3142C62.9652 41.0076 62.3903 40.5727 61.9137 40.0093C61.4371 39.4459 61.0702 38.7666 60.813 37.9713C60.5634 37.1759 60.4385 36.2812 60.4385 35.287C60.4385 34.3011 60.5634 33.4105 60.813 32.6152C61.0702 31.8116 61.4371 31.1281 61.9137 30.5647C62.3903 30.0013 62.9652 29.5664 63.6385 29.2599C64.3193 28.9533 65.0834 28.8 65.9307 28.8ZM65.9307 40.0342C67.0654 40.0342 67.9127 39.6199 68.4725 38.7914C69.0323 37.9547 69.3122 36.7907 69.3122 35.2994C69.3122 33.7999 69.0323 32.6317 68.4725 31.795C67.9127 30.9582 67.0654 30.5398 65.9307 30.5398C65.3557 30.5398 64.8527 30.6475 64.4215 30.863C63.9978 31.0784 63.6423 31.389 63.3548 31.795C63.0749 32.2009 62.8631 32.7022 62.7194 33.2987C62.5832 33.8869 62.5151 34.5538 62.5151 35.2994C62.5151 36.7907 62.795 37.9547 63.3548 38.7914C63.9222 39.6199 64.7808 40.0342 65.9307 40.0342Z" fill="white"/>
<path d="M58.4467 31.2358C58.3861 31.3269 58.3256 31.3973 58.2651 31.447C58.2046 31.4967 58.1214 31.5216 58.0155 31.5216C57.902 31.5216 57.7772 31.4719 57.641 31.3725C57.5048 31.2648 57.3346 31.1488 57.1304 31.0245C56.9337 30.9002 56.6878 30.7884 56.3928 30.689C56.1053 30.5813 55.7498 30.5274 55.3261 30.5274C54.7588 30.5274 54.2595 30.6393 53.8283 30.863C53.3971 31.0784 53.034 31.3932 52.7389 31.8074C52.4515 32.2216 52.2321 32.7229 52.0808 33.3111C51.9371 33.8993 51.8652 34.5579 51.8652 35.287C51.8652 36.0492 51.9446 36.7285 52.1035 37.325C52.2624 37.9133 52.4855 38.4104 52.773 38.8163C53.068 39.214 53.4198 39.5205 53.8283 39.7359C54.2444 39.943 54.7096 40.0466 55.224 40.0466C55.7157 40.0466 56.1205 39.9845 56.4382 39.8602C56.7559 39.7276 57.0169 39.5826 57.2211 39.4252C57.433 39.2678 57.607 39.127 57.7431 39.0027C57.8869 38.8702 58.0268 38.8039 58.163 38.8039C58.3294 38.8039 58.458 38.8743 58.5488 39.0151L59.1162 39.8229C58.8665 40.1626 58.5828 40.4525 58.2651 40.6928C57.9474 40.9331 57.6032 41.136 57.2325 41.3017C56.8694 41.4591 56.4874 41.5751 56.0864 41.6497C55.6855 41.7242 55.277 41.7615 54.8609 41.7615C54.1422 41.7615 53.4727 41.6165 52.8524 41.3266C52.2397 41.0366 51.7063 40.6182 51.2524 40.0714C50.7986 39.5164 50.443 38.837 50.1858 38.0334C49.9286 37.2298 49.8 36.3143 49.8 35.287C49.8 34.3508 49.9172 33.4851 50.1518 32.6897C50.3938 31.8944 50.7418 31.2109 51.1957 30.6393C51.6572 30.0593 52.2208 29.6078 52.8865 29.2847C53.5597 28.9616 54.3314 28.8 55.2013 28.8C56.0108 28.8 56.7219 28.945 57.3346 29.235C57.9549 29.5167 58.5034 29.9185 58.98 30.4404L58.4467 31.2358Z" fill="white"/>
<path d="M48.6 20.9856C48.6 24.022 48.2505 26.8277 47.5516 29.4029C46.8653 31.9588 45.8932 34.1784 44.6351 36.0618C43.377 37.9259 41.8584 39.3864 40.0792 40.4434C38.3128 41.4811 36.3494 42 34.1891 42H23.4V0H34.1891C36.3494 0 38.3128 0.528483 40.0792 1.58545C41.8584 2.64241 43.377 4.10295 44.6351 5.96706C45.8932 7.83116 46.8653 10.0508 47.5516 12.6259C48.2505 15.1819 48.6 17.9684 48.6 20.9856ZM42.0045 20.9856C42.0045 18.9101 41.8266 17.0364 41.4708 15.3644C41.1149 13.6925 40.6003 12.28 39.9267 11.127C39.2659 9.9547 38.4526 9.06108 37.4868 8.44612C36.521 7.81194 35.4217 7.49485 34.1891 7.49485H29.8811V34.5051H34.1891C35.4217 34.5051 36.521 34.1977 37.4868 33.5827C38.4526 32.9485 39.2659 32.0549 39.9267 30.9019C40.6003 29.7296 41.1149 28.3075 41.4708 26.6356C41.8266 24.9636 42.0045 23.0803 42.0045 20.9856Z" fill="white"/>
<path d="M7.1245 7.49485V17.2958H15.9134V24.5024H7.1245V34.5051H18.6V42H0.599976V0H18.6V7.49485H7.1245Z" fill="white"/>
</svg>
