<svg width="10" height="16" viewBox="0 0 10 16" fill="none" xmlns="http://www.w3.org/2000/svg">
<path d="M8.75331 0.00332907L6.67849 0C4.34747 0 2.84106 1.54553 2.84106 3.93762V5.75313H0.754898C0.57463 5.75313 0.42865 5.89928 0.42865 6.07954V8.71001C0.42865 8.89032 0.574796 9.03627 0.754898 9.03627H2.84106V15.6738C2.84106 15.8541 2.98704 16 3.16731 16H5.88915C6.06942 16 6.2154 15.8539 6.2154 15.6738V9.03627H8.65461C8.83488 9.03627 8.98086 8.89032 8.98086 8.71001L8.98186 6.07954C8.98186 5.99298 8.9474 5.9101 8.88631 5.84883C8.82523 5.78758 8.74201 5.75313 8.65545 5.75313H6.2154V4.2141C6.2154 3.47438 6.39168 3.09886 7.35529 3.09886L8.75299 3.09837C8.93309 3.09837 9.07907 2.95221 9.07907 2.77212V0.329578C9.07907 0.149642 8.93326 0.00366197 8.75331 0.00332907Z" fill="white"/>
</svg>
