<svg width="16" height="16" viewBox="0 0 16 16" fill="none" xmlns="http://www.w3.org/2000/svg">
<g clip-path="url(#clip0_95_1055)">
<path d="M7.99728 4.6651C6.16109 4.6651 4.6626 6.16359 4.6626 7.9998C4.6626 9.83599 6.16109 11.3345 7.99728 11.3345C9.8335 11.3345 11.332 9.83599 11.332 7.9998C11.332 6.16359 9.8335 4.6651 7.99728 4.6651ZM17.9989 7.9998C17.9989 6.61889 18.0114 5.25049 17.9337 3.87209C17.8563 2.27104 17.4911 0.850107 16.3202 -0.32066C15.147 -1.49392 13.7286 -1.85666 12.1275 -1.93421C10.7466 -2.01176 9.37819 -1.99926 7.9998 -1.99926C6.61889 -1.99926 5.25049 -2.01176 3.87209 -1.93421C2.27104 -1.85666 0.850108 -1.49142 -0.320659 -0.32066C-1.49393 0.852605 -1.85666 2.27104 -1.93421 3.87209C-2.01176 5.25299 -1.99926 6.62139 -1.99926 7.9998C-1.99926 9.37819 -2.01176 10.7491 -1.93421 12.1275C-1.85666 13.7285 -1.49142 15.1495 -0.320659 16.3203C0.852606 17.4936 2.27104 17.8562 3.87209 17.9339C5.25299 18.0113 6.62139 17.9989 7.9998 17.9989C9.3807 17.9989 10.7491 18.0113 12.1275 17.9339C13.7286 17.8562 15.1495 17.491 16.3202 16.3203C17.4935 15.1469 17.8563 13.7285 17.9337 12.1275C18.0138 10.7491 17.9989 9.3807 17.9989 7.9998ZM7.99728 13.1306C5.15794 13.1306 2.86644 10.8391 2.86644 7.9998C2.86644 5.16043 5.15794 2.86893 7.99728 2.86893C10.8366 2.86893 13.1282 5.16043 13.1282 7.9998C13.1282 10.8391 10.8366 13.1306 7.99728 13.1306ZM13.3383 3.85708C12.6754 3.85708 12.14 3.32173 12.14 2.6588C12.14 1.99587 12.6754 1.46051 13.3383 1.46051C14.0013 1.46051 14.5366 1.99587 14.5366 2.6588C14.5368 2.81621 14.5059 2.97212 14.4457 3.11759C14.3857 3.26306 14.2973 3.39525 14.186 3.50655C14.0747 3.61786 13.9425 3.70612 13.7971 3.76627C13.6516 3.82642 13.4956 3.85728 13.3383 3.85708Z" fill="white"/>
</g>
<defs>
<clipPath id="clip0_95_1055">
<rect width="16" height="16" fill="white"/>
</clipPath>
</defs>
</svg>
