<svg width="16" height="16" viewBox="0 0 16 16" fill="none" xmlns="http://www.w3.org/2000/svg">
<g clip-path="url(#clip0_95_1058)">
<path d="M17.5575 3.00036L17.5825 3.16177C17.3408 2.31436 16.6883 1.66048 15.8592 1.42248L15.8417 1.41836C14.2825 1.00001 8.00846 1.00001 8.00846 1.00001C8.00846 1.00001 1.7502 0.991776 0.175218 1.41836C-0.669771 1.66048 -1.3231 2.31436 -1.56059 3.14448L-1.56476 3.16177C-2.14725 6.16848 -2.15142 9.7813 -1.53893 13.0005L-1.56476 12.8374C-1.3231 13.6848 -0.670604 14.3387 0.158552 14.5767L0.176052 14.5808C1.73353 15 8.00929 15 8.00929 15C8.00929 15 14.2667 15 15.8425 14.5808C16.6883 14.3387 17.3417 13.6848 17.5792 12.8547L17.5833 12.8374C17.8483 11.4391 18 9.82989 18 8.18612C18 8.12601 18 8.06506 17.9992 8.00412C18 7.94812 18 7.88142 18 7.81471C18 6.17012 17.8483 4.56095 17.5575 3.00036ZM6.00681 11.0067V5.00071L11.2284 8.00824L6.00681 11.0067Z" fill="white"/>
</g>
<defs>
<clipPath id="clip0_95_1058">
<rect width="16" height="16" fill="white"/>
</clipPath>
</defs>
</svg>
