<svg width="24" height="24" viewBox="0 0 24 24" fill="none" xmlns="http://www.w3.org/2000/svg">
<path d="M11.9973 8.6651C10.1611 8.6651 8.6626 10.1636 8.6626 11.9998C8.6626 13.836 10.1611 15.3345 11.9973 15.3345C13.8335 15.3345 15.332 13.836 15.332 11.9998C15.332 10.1636 13.8335 8.6651 11.9973 8.6651ZM21.9989 11.9998C21.9989 10.6189 22.0114 9.25049 21.9337 7.87209C21.8563 6.27104 21.4911 4.85011 20.3202 3.67934C19.147 2.50608 17.7286 2.14334 16.1275 2.06579C14.7466 1.98824 13.3782 2.00074 11.9998 2.00074C10.6189 2.00074 9.25049 1.98824 7.87209 2.06579C6.27104 2.14334 4.85011 2.50858 3.67934 3.67934C2.50607 4.8526 2.14334 6.27104 2.06579 7.87209C1.98824 9.25299 2.00074 10.6214 2.00074 11.9998C2.00074 13.3782 1.98824 14.7491 2.06579 16.1275C2.14334 17.7285 2.50858 19.1495 3.67934 20.3203C4.85261 21.4936 6.27104 21.8562 7.87209 21.9339C9.25299 22.0113 10.6214 21.9989 11.9998 21.9989C13.3807 21.9989 14.7491 22.0113 16.1275 21.9339C17.7286 21.8562 19.1495 21.491 20.3202 20.3203C21.4935 19.1469 21.8563 17.7285 21.9337 16.1275C22.0138 14.7491 21.9989 13.3807 21.9989 11.9998ZM11.9973 17.1306C9.15794 17.1306 6.86644 14.8391 6.86644 11.9998C6.86644 9.16043 9.15794 6.86893 11.9973 6.86893C14.8366 6.86893 17.1282 9.16043 17.1282 11.9998C17.1282 14.8391 14.8366 17.1306 11.9973 17.1306ZM17.3383 7.85708C16.6754 7.85708 16.14 7.32173 16.14 6.6588C16.14 5.99587 16.6754 5.46051 17.3383 5.46051C18.0013 5.46051 18.5366 5.99587 18.5366 6.6588C18.5368 6.81621 18.5059 6.97212 18.4457 7.11759C18.3857 7.26306 18.2973 7.39525 18.186 7.50655C18.0747 7.61786 17.9425 7.70612 17.7971 7.76627C17.6516 7.82642 17.4956 7.85728 17.3383 7.85708Z" fill="black"/>
</svg>
