<svg width="131" height="65" viewBox="0 0 131 65" fill="none" xmlns="http://www.w3.org/2000/svg">
<path fill-rule="evenodd" clip-rule="evenodd" d="M8.75403 18.5312V8.0302H25V0H0V45H25V36.9698H8.75403V26.2526H20.9836V18.5312H8.75403ZM50.9183 53.3027C51.6394 50.9115 52 48.3061 52 45.4866C52 42.685 51.6394 40.0975 50.9183 37.7241C50.2103 35.3329 49.2073 33.2718 47.9092 31.5408C46.6112 29.8099 45.0444 28.4537 43.2088 27.4722C41.3863 26.4907 39.3606 26 37.1316 26H27V65H37.1316C39.3606 65 41.3863 64.5182 43.2088 63.5546C45.0444 62.5731 46.6112 61.2169 47.9092 59.4859C49.2073 57.7371 50.2103 55.6761 50.9183 53.3027ZM44.6445 40.267C45.0116 41.8195 45.1952 43.5594 45.1952 45.4866C45.1952 47.4317 45.0116 49.1805 44.6445 50.733C44.2774 52.2855 43.7463 53.606 43.0514 54.6946C42.3696 55.7653 41.5305 56.5951 40.534 57.1839C39.5376 57.755 38.4034 58.0405 37.1316 58.0405H33.6868V32.9595H37.1316C38.4034 32.9595 39.5376 33.2539 40.534 33.8428C41.5305 34.4139 42.3696 35.2436 43.0514 36.3322C43.7463 37.4029 44.2774 38.7145 44.6445 40.267ZM53.5444 21.3687V8.89005H55.3861V10.7748H55.5153C55.7415 10.1574 56.1508 9.65642 56.7431 9.27188C57.3355 8.88734 58.0032 8.69507 58.7463 8.69507C58.8863 8.69507 59.0613 8.69778 59.2713 8.70319C59.4814 8.70861 59.6402 8.71673 59.7479 8.72757V10.6774C59.6833 10.6611 59.5352 10.6367 59.3037 10.6042C59.0775 10.5663 58.8379 10.5474 58.5848 10.5474C57.9816 10.5474 57.4431 10.6746 56.9693 10.9292C56.5008 11.1783 56.1292 11.525 55.8546 11.9691C55.5853 12.4078 55.4507 12.9088 55.4507 13.4721V21.3687H53.5444ZM28.9063 21.3687V13.862C28.9063 13.1363 29.0436 12.5188 29.3182 12.0097C29.5929 11.5006 29.9671 11.1134 30.441 10.848C30.9202 10.5826 31.4641 10.4499 32.0726 10.4499C32.9558 10.4499 33.6504 10.7261 34.1566 11.2785C34.6628 11.8256 34.9159 12.5892 34.9159 13.5695V21.3687H36.8222V13.4396C36.8222 12.378 36.6471 11.5006 36.2971 10.8073C35.9471 10.1087 35.4571 9.58872 34.827 9.24751C34.197 8.90088 33.4619 8.72757 32.6219 8.72757C31.6849 8.72757 30.9202 8.92255 30.3279 9.3125C29.7356 9.69705 29.294 10.2062 29.0032 10.8398H28.8417V8.89005H27V21.3687H28.9063ZM42.4137 20.8325C43.2807 21.3633 44.3119 21.6287 45.5074 21.6287C46.3475 21.6287 47.104 21.4987 47.7772 21.2387C48.4503 20.9733 49.0157 20.605 49.4734 20.1338C49.9311 19.6572 50.2569 19.1048 50.4508 18.4765L48.6091 17.9566C48.4476 18.3899 48.2187 18.7527 47.9226 19.0452C47.6264 19.3323 47.2737 19.5489 46.8644 19.6951C46.4605 19.836 46.0082 19.9064 45.5074 19.9064C44.7374 19.9064 44.0615 19.7385 43.48 19.4027C42.8984 19.0615 42.4434 18.5659 42.1149 17.916C41.8219 17.3217 41.6618 16.6095 41.6345 15.7793H50.6446V14.9669C50.6446 13.8024 50.4912 12.8221 50.1842 12.026C49.8773 11.2298 49.4653 10.5907 48.9484 10.1087C48.4314 9.62122 47.8579 9.26917 47.2279 9.05253C46.5979 8.83589 45.9597 8.72757 45.3135 8.72757C44.1935 8.72757 43.2134 9.00379 42.3734 9.55623C41.5387 10.1033 40.8871 10.8669 40.4186 11.8472C39.9555 12.8221 39.724 13.9487 39.724 15.2269C39.724 16.5051 39.9555 17.6262 40.4186 18.5903C40.8871 19.5489 41.5522 20.2963 42.4137 20.8325ZM41.6393 14.122C41.6756 13.5431 41.8207 12.9961 42.0745 12.4809C42.3707 11.8797 42.7934 11.3923 43.3427 11.0186C43.8973 10.6394 44.5543 10.4499 45.3135 10.4499C46.0028 10.4499 46.6006 10.6097 47.1067 10.9292C47.6183 11.2488 48.0114 11.6847 48.286 12.2372C48.5661 12.7896 48.7061 13.4179 48.7061 14.122H41.6393ZM64.2632 25.9507C64.9255 26.189 65.7171 26.3082 66.638 26.3082C67.6288 26.3082 68.5281 26.1484 69.3358 25.8289C70.1489 25.5147 70.7951 25.0192 71.2744 24.3421C71.759 23.6705 72.0014 22.7986 72.0014 21.7262V8.89005H70.1597V10.8723H69.9659C69.8258 10.6557 69.6266 10.3795 69.3681 10.0437C69.115 9.70246 68.7489 9.39916 68.2696 9.13377C67.7957 8.86297 67.1549 8.72757 66.3472 8.72757C65.3025 8.72757 64.3817 8.99025 63.5847 9.51561C62.7877 10.0356 62.1658 10.7721 61.7188 11.7254C61.2719 12.6732 61.0484 13.7862 61.0484 15.0644C61.0484 16.3642 61.2772 17.4691 61.735 18.379C62.1981 19.2889 62.8254 19.9822 63.617 20.4588C64.414 20.9354 65.3133 21.1737 66.3149 21.1737C67.1226 21.1737 67.7634 21.0465 68.2373 20.7919C68.7165 20.5319 69.0827 20.2367 69.3358 19.9064C69.5943 19.5706 69.7935 19.2889 69.9335 19.0615H70.0951V21.5962C70.0951 22.6361 69.7693 23.3997 69.1177 23.8872C68.4661 24.3746 67.6396 24.6184 66.638 24.6184C65.8895 24.6184 65.2836 24.5073 64.8205 24.2853C64.3628 24.0686 64.002 23.8114 63.7382 23.5135C63.4743 23.221 63.2562 22.961 63.0839 22.7336L61.5653 23.806C61.8238 24.2392 62.1711 24.6454 62.6073 25.0246C63.0489 25.4091 63.6008 25.7178 64.2632 25.9507ZM68.5119 18.9233C67.9842 19.2754 67.338 19.4514 66.5733 19.4514C65.7764 19.4514 65.1086 19.2646 64.5701 18.8909C64.037 18.5117 63.6332 17.9918 63.3585 17.331C63.0893 16.6648 62.9546 15.8985 62.9546 15.0319C62.9546 14.187 63.0866 13.4179 63.3504 12.7246C63.6197 12.0314 64.0209 11.4789 64.554 11.0673C65.0925 10.6557 65.7656 10.4499 66.5733 10.4499C67.3488 10.4499 68.0003 10.6449 68.5281 11.0348C69.0558 11.4248 69.4543 11.9637 69.7235 12.6515C69.9928 13.3394 70.1274 14.1328 70.1274 15.0319C70.1274 15.9526 69.9901 16.7434 69.7155 17.4041C69.4408 18.0649 69.0396 18.5713 68.5119 18.9233ZM76.7186 26.0482C76.3955 26.0482 76.1074 26.0211 75.8543 25.967C75.6012 25.9182 75.4262 25.8695 75.3293 25.8207L75.8139 24.1309C76.277 24.2501 76.6863 24.2934 77.0417 24.2609C77.3971 24.2284 77.7121 24.0686 77.9867 23.7816C78.2668 23.4999 78.5225 23.0423 78.7541 22.4086L79.1095 21.4337L74.5215 8.89005H76.5893L80.0142 18.834H80.1434L83.5682 8.89005H85.6361L80.3696 23.1885C80.1326 23.833 79.8392 24.3665 79.4891 24.789C79.1391 25.2168 78.7326 25.5337 78.2695 25.7395C77.8117 25.9453 77.2948 26.0482 76.7186 26.0482ZM54.2507 44.6471V36.1765H55.4831V44.6471H54.2507ZM54.8773 34.7647C54.6371 34.7647 54.43 34.6783 54.2559 34.5055C54.0853 34.3327 54 34.125 54 33.8824C54 33.6397 54.0853 33.432 54.2559 33.2592C54.43 33.0864 54.6371 33 54.8773 33C55.1176 33 55.323 33.0864 55.4936 33.2592C55.6676 33.432 55.7547 33.6397 55.7547 33.8824C55.7547 34.125 55.6676 34.3327 55.4936 34.5055C55.323 34.6783 55.1176 34.7647 54.8773 34.7647ZM60.9783 48C60.3829 48 59.8712 47.9191 59.4429 47.7574C59.0147 47.5993 58.6578 47.3897 58.3724 47.1287C58.0904 46.8713 57.8658 46.5956 57.6987 46.3015L58.6805 45.5735C58.7919 45.7279 58.9329 45.9044 59.1035 46.1029C59.2741 46.3051 59.5073 46.4798 59.8033 46.6268C60.1027 46.7776 60.4943 46.8529 60.9783 46.8529C61.6258 46.8529 62.1603 46.6875 62.5815 46.3566C63.0028 46.0257 63.2134 45.5074 63.2134 44.8015V43.0809H63.109C63.0185 43.2353 62.8896 43.4265 62.7225 43.6544C62.5589 43.8787 62.3221 44.079 62.0123 44.2555C61.7059 44.4283 61.2916 44.5147 60.7694 44.5147C60.1218 44.5147 59.5404 44.3529 59.0251 44.0294C58.5134 43.7059 58.1078 43.2353 57.8084 42.6176C57.5124 42 57.3645 41.25 57.3645 40.3676C57.3645 39.5 57.5089 38.7445 57.7979 38.1011C58.0869 37.454 58.489 36.954 59.0043 36.6011C59.5195 36.2445 60.1149 36.0662 60.7903 36.0662C61.3125 36.0662 61.7268 36.1581 62.0332 36.3419C62.343 36.5221 62.5798 36.7279 62.7434 36.9596C62.9105 37.1875 63.0393 37.375 63.1299 37.5221H63.2552V36.1765H64.4459V44.8897C64.4459 45.6176 64.2892 46.2096 63.9759 46.6654C63.666 47.125 63.2482 47.4614 62.7225 47.6746C62.2003 47.8915 61.6189 48 60.9783 48ZM60.9365 43.3456C61.4309 43.3456 61.8487 43.2261 62.1898 42.9871C62.531 42.7482 62.7904 42.4044 62.968 41.9559C63.1455 41.5074 63.2343 40.9706 63.2343 40.3456C63.2343 39.7353 63.1473 39.1967 62.9732 38.7298C62.7991 38.2629 62.5415 37.8971 62.2003 37.6324C61.8591 37.3676 61.4378 37.2353 60.9365 37.2353C60.4143 37.2353 59.9791 37.375 59.6309 37.6544C59.2863 37.9338 59.0269 38.3088 58.8528 38.7794C58.6822 39.25 58.5969 39.7721 58.5969 40.3456C58.5969 40.9338 58.684 41.454 58.858 41.9062C59.0356 42.3548 59.2967 42.7077 59.6414 42.9651C59.9895 43.2188 60.4212 43.3456 60.9365 43.3456ZM66.7019 36.1765V44.6471H67.9344V36.1765H66.7019ZM66.7071 34.5055C66.8812 34.6783 67.0884 34.7647 67.3286 34.7647C67.5688 34.7647 67.7742 34.6783 67.9448 34.5055C68.1189 34.3327 68.2059 34.125 68.2059 33.8824C68.2059 33.6397 68.1189 33.432 67.9448 33.2592C67.7742 33.0864 67.5688 33 67.3286 33C67.0884 33 66.8812 33.0864 66.7071 33.2592C66.5365 33.432 66.4512 33.6397 66.4512 33.8824C66.4512 34.125 66.5365 34.3327 66.7071 34.5055ZM73.6802 36.1765V37.2794H71.9673V42.2206C71.9673 42.5882 72.0178 42.864 72.1187 43.0478C72.2232 43.2279 72.3555 43.3493 72.5156 43.4118C72.6792 43.4706 72.8516 43.5 73.0326 43.5C73.1684 43.5 73.2798 43.4926 73.3669 43.4779L73.5757 43.4338L73.8264 44.6029C73.7429 44.636 73.6262 44.6691 73.4765 44.7022C73.3268 44.739 73.1371 44.7574 72.9073 44.7574C72.5591 44.7574 72.2179 44.6783 71.8837 44.5202C71.553 44.3621 71.2779 44.1213 71.0586 43.7978C70.8427 43.4743 70.7348 43.0662 70.7348 42.5735V37.2794H69.5232V36.1765H70.7348V34.1471H71.9673V36.1765H73.6802ZM76.5107 44.5423C76.925 44.7445 77.3863 44.8456 77.8946 44.8456C78.3611 44.8456 78.7562 44.7721 79.08 44.625C79.4038 44.4779 79.6632 44.2996 79.8582 44.0901C80.0531 43.8805 80.1924 43.6838 80.2759 43.5H80.3386V44.6471H81.5711V39.0662C81.5711 38.3934 81.4666 37.8566 81.2577 37.4559C81.0488 37.0551 80.786 36.7555 80.4692 36.557C80.1558 36.3585 79.8303 36.2279 79.4926 36.1654C79.1584 36.0993 78.8624 36.0662 78.6048 36.0662C78.2009 36.0662 77.7901 36.125 77.3723 36.2426C76.958 36.3566 76.5751 36.5588 76.2234 36.8493C75.8753 37.136 75.5968 37.5368 75.3879 38.0515L76.5577 38.4926C76.6934 38.1838 76.9285 37.8934 77.2627 37.6213C77.5969 37.3493 78.0582 37.2132 78.6466 37.2132C79.2141 37.2132 79.6371 37.364 79.9156 37.6654C80.1976 37.9669 80.3386 38.3897 80.3386 38.9338V38.9779C80.3386 39.1875 80.2672 39.3346 80.1245 39.4191C79.9852 39.5037 79.7624 39.5643 79.456 39.6011C79.1531 39.6342 78.758 39.6838 78.2706 39.75C77.8981 39.8015 77.5273 39.8713 77.1582 39.9596C76.7927 40.0441 76.4584 40.1728 76.1555 40.3456C75.8527 40.5184 75.6107 40.7574 75.4296 41.0625C75.2486 41.364 75.1581 41.7574 75.1581 42.2426C75.1581 42.7941 75.2799 43.2647 75.5237 43.6544C75.7674 44.0404 76.0964 44.3364 76.5107 44.5423ZM79.315 43.3732C78.9808 43.5754 78.57 43.6765 78.0826 43.6765C77.5917 43.6765 77.1861 43.5625 76.8658 43.3346C76.549 43.1029 76.3906 42.761 76.3906 42.3088C76.3906 41.9779 76.4741 41.7169 76.6412 41.5257C76.8118 41.3309 77.0346 41.1857 77.3097 41.0901C77.5882 40.9908 77.8876 40.9191 78.2079 40.875C78.3402 40.8566 78.5125 40.8346 78.7249 40.8088C78.9408 40.7794 79.1618 40.7463 79.3881 40.7096C79.6179 40.6691 79.8199 40.6232 79.9939 40.5717C80.1715 40.5165 80.2864 40.4559 80.3386 40.3897V41.5809C80.3386 41.9338 80.2516 42.2702 80.0775 42.5901C79.9069 42.9099 79.6527 43.171 79.315 43.3732ZM85.053 33.3529V44.6471H83.8206V33.3529H85.053ZM87.3103 36.1765V44.6471H88.5428V36.1765H87.3103ZM87.3156 34.5055C87.4897 34.6783 87.6968 34.7647 87.937 34.7647C88.1773 34.7647 88.3827 34.6783 88.5533 34.5055C88.7273 34.3327 88.8144 34.125 88.8144 33.8824C88.8144 33.6397 88.7273 33.432 88.5533 33.2592C88.3827 33.0864 88.1773 33 87.937 33C87.6968 33 87.4897 33.0864 87.3156 33.2592C87.145 33.432 87.0597 33.6397 87.0597 33.8824C87.0597 34.125 87.145 34.3327 87.3156 34.5055ZM90.5704 44.6471V43.6544L95.1242 37.4779V37.3897H90.7166V36.1765H96.7118V37.2132L92.2833 43.3456V43.4338H96.858V44.6471H90.5704ZM99.7329 44.5423C100.147 44.7445 100.608 44.8456 101.117 44.8456C101.583 44.8456 101.978 44.7721 102.302 44.625C102.626 44.4779 102.885 44.2996 103.08 44.0901C103.275 43.8805 103.415 43.6838 103.498 43.5H103.561V44.6471H104.793V39.0662C104.793 38.3934 104.689 37.8566 104.48 37.4559C104.271 37.0551 104.008 36.7555 103.691 36.557C103.378 36.3585 103.052 36.2279 102.715 36.1654C102.381 36.0993 102.085 36.0662 101.827 36.0662C101.423 36.0662 101.012 36.125 100.595 36.2426C100.18 36.3566 99.7973 36.5588 99.4456 36.8493C99.0975 37.136 98.819 37.5368 98.6101 38.0515L99.7799 38.4926C99.9156 38.1838 100.151 37.8934 100.485 37.6213C100.819 37.3493 101.28 37.2132 101.869 37.2132C102.436 37.2132 102.859 37.364 103.138 37.6654C103.42 37.9669 103.561 38.3897 103.561 38.9338V38.9779C103.561 39.1875 103.489 39.3346 103.347 39.4191C103.207 39.5037 102.985 39.5643 102.678 39.6011C102.375 39.6342 101.98 39.6838 101.493 39.75C101.12 39.8015 100.749 39.8713 100.38 39.9596C100.015 40.0441 99.6806 40.1728 99.3777 40.3456C99.0749 40.5184 98.8329 40.7574 98.6519 41.0625C98.4708 41.364 98.3803 41.7574 98.3803 42.2426C98.3803 42.7941 98.5021 43.2647 98.7458 43.6544C98.9896 44.0404 99.3186 44.3364 99.7329 44.5423ZM102.537 43.3732C102.203 43.5754 101.792 43.6765 101.305 43.6765C100.814 43.6765 100.408 43.5625 100.088 43.3346C99.7712 43.1029 99.6128 42.761 99.6128 42.3088C99.6128 41.9779 99.6963 41.7169 99.8634 41.5257C100.034 41.3309 100.257 41.1857 100.532 41.0901C100.81 40.9908 101.11 40.9191 101.43 40.875C101.562 40.8566 101.735 40.8346 101.947 40.8088C102.163 40.7794 102.384 40.7463 102.61 40.7096C102.84 40.6691 103.042 40.6232 103.216 40.5717C103.394 40.5165 103.509 40.4559 103.561 40.3897V41.5809C103.561 41.9338 103.474 42.2702 103.3 42.5901C103.129 42.9099 102.875 43.171 102.537 43.3732ZM110.531 36.1765V37.2794H108.818V42.2206C108.818 42.5882 108.869 42.864 108.97 43.0478C109.074 43.2279 109.207 43.3493 109.367 43.4118C109.53 43.4706 109.703 43.5 109.884 43.5C110.019 43.5 110.131 43.4926 110.218 43.4779L110.427 43.4338L110.677 44.6029C110.594 44.636 110.477 44.6691 110.328 44.7022C110.178 44.739 109.988 44.7574 109.758 44.7574C109.41 44.7574 109.069 44.6783 108.735 44.5202C108.404 44.3621 108.129 44.1213 107.91 43.7978C107.694 43.4743 107.586 43.0662 107.586 42.5735V37.2794H106.374V36.1765H107.586V34.1471H108.818V36.1765H110.531ZM112.385 36.1765V44.6471H113.618V36.1765H112.385ZM112.39 34.5055C112.564 34.6783 112.772 34.7647 113.012 34.7647C113.252 34.7647 113.457 34.6783 113.628 34.5055C113.802 34.3327 113.889 34.125 113.889 33.8824C113.889 33.6397 113.802 33.432 113.628 33.2592C113.457 33.0864 113.252 33 113.012 33C112.772 33 112.564 33.0864 112.39 33.2592C112.22 33.432 112.134 33.6397 112.134 33.8824C112.134 34.125 112.22 34.3327 112.39 34.5055ZM119.134 44.8235C118.41 44.8235 117.774 44.6415 117.228 44.2776C116.684 43.9136 116.26 43.4044 115.953 42.75C115.65 42.0956 115.499 41.3309 115.499 40.4559C115.499 39.5735 115.65 38.8033 115.953 38.1452C116.26 37.4871 116.684 36.9761 117.228 36.6121C117.774 36.2482 118.41 36.0662 119.134 36.0662C119.858 36.0662 120.491 36.2482 121.035 36.6121C121.581 36.9761 122.006 37.4871 122.309 38.1452C122.615 38.8033 122.768 39.5735 122.768 40.4559C122.768 41.3309 122.615 42.0956 122.309 42.75C122.006 43.4044 121.581 43.9136 121.035 44.2776C120.491 44.6415 119.858 44.8235 119.134 44.8235ZM119.134 43.6544C119.684 43.6544 120.136 43.5055 120.491 43.2077C120.847 42.9099 121.109 42.5184 121.28 42.0331C121.451 41.5478 121.536 41.0221 121.536 40.4559C121.536 39.8897 121.451 39.3621 121.28 38.8732C121.109 38.3842 120.847 37.989 120.491 37.6875C120.136 37.386 119.684 37.2353 119.134 37.2353C118.584 37.2353 118.131 37.386 117.776 37.6875C117.421 37.989 117.158 38.3842 116.987 38.8732C116.817 39.3621 116.731 39.8897 116.731 40.4559C116.731 41.0221 116.817 41.5478 116.987 42.0331C117.158 42.5184 117.421 42.9099 117.776 43.2077C118.131 43.5055 118.584 43.6544 119.134 43.6544ZM125.882 44.6471V39.5515C125.882 39.0588 125.971 38.6397 126.148 38.2941C126.326 37.9485 126.568 37.6857 126.874 37.5055C127.184 37.3254 127.536 37.2353 127.929 37.2353C128.5 37.2353 128.949 37.4228 129.277 37.7978C129.604 38.1691 129.768 38.6875 129.768 39.3529V44.6471H131V39.2647C131 38.5441 130.887 37.9485 130.661 37.4779C130.434 37.0037 130.117 36.6507 129.71 36.4191C129.303 36.1838 128.828 36.0662 128.284 36.0662C127.679 36.0662 127.184 36.1985 126.801 36.4632C126.418 36.7243 126.133 37.0699 125.945 37.5H125.84V36.1765H124.65V44.6471H125.882Z" fill="black"/>
</svg>
