<svg width="15" height="16" viewBox="0 0 15 16" fill="none" xmlns="http://www.w3.org/2000/svg">
<path d="M7.51553 0C8.6646 0 9.69979 0.189199 10.6211 0.567595C11.5424 0.94599 12.3292 1.4829 12.9814 2.17833C13.6335 2.87376 14.1304 3.71748 14.472 4.70949C14.824 5.69128 15 6.79067 15 8.00767C15 9.2349 14.824 10.3394 14.472 11.3212C14.1304 12.303 13.6335 13.1416 12.9814 13.837C12.3292 14.5324 11.5424 15.0694 10.6211 15.4477C9.69979 15.8159 8.6646 16 7.51553 16C6.35611 16 5.31056 15.8159 4.37888 15.4477C3.45756 15.0694 2.67081 14.5324 2.01863 13.837C1.36646 13.1416 0.864389 12.303 0.512422 11.3212C0.170807 10.3394 0 9.2349 0 8.00767C0 6.79067 0.170807 5.69128 0.512422 4.70949C0.864389 3.71748 1.36646 2.87376 2.01863 2.17833C2.67081 1.4829 3.45756 0.94599 4.37888 0.567595C5.31056 0.189199 6.35611 0 7.51553 0ZM7.51553 13.8677C9.06832 13.8677 10.2277 13.3563 10.9938 12.3337C11.7598 11.3007 12.1429 9.86386 12.1429 8.02301C12.1429 6.17194 11.7598 4.72995 10.9938 3.69703C10.2277 2.66411 9.06832 2.14765 7.51553 2.14765C6.72878 2.14765 6.04037 2.2806 5.45031 2.5465C4.8706 2.8124 4.38406 3.19591 3.99068 3.69703C3.60766 4.19815 3.31781 4.81688 3.12112 5.55321C2.93478 6.27932 2.84161 7.10259 2.84161 8.02301C2.84161 9.86386 3.22464 11.3007 3.99068 12.3337C4.76708 13.3563 5.94203 13.8677 7.51553 13.8677Z" fill="black"/>
</svg>
