<svg width="13" height="16" viewBox="0 0 13 16" fill="none" xmlns="http://www.w3.org/2000/svg">
<path d="M12.0658 3.00671C11.9813 3.11921 11.8969 3.20614 11.8124 3.2675C11.728 3.32886 11.6119 3.35954 11.4641 3.35954C11.3057 3.35954 11.1315 3.29818 10.9415 3.17546C10.7515 3.04251 10.514 2.89933 10.229 2.74593C9.95453 2.59252 9.61145 2.45446 9.19976 2.33174C8.79862 2.19879 8.30248 2.13231 7.71133 2.13231C6.91961 2.13231 6.2229 2.27038 5.62119 2.5465C5.01949 2.8124 4.51279 3.20102 4.1011 3.71237C3.69996 4.22371 3.39383 4.84244 3.1827 5.56855C2.98214 6.29466 2.88185 7.1077 2.88185 8.00767C2.88185 8.94855 2.99269 9.78715 3.21437 10.5235C3.43605 11.2496 3.74746 11.8632 4.1486 12.3643C4.56029 12.8552 5.05116 13.2336 5.62119 13.4995C6.20179 13.7552 6.85099 13.883 7.56882 13.883C8.25497 13.883 8.81973 13.8063 9.26309 13.6529C9.70646 13.4893 10.0706 13.3103 10.3557 13.116C10.6512 12.9217 10.894 12.7478 11.084 12.5944C11.2846 12.4308 11.4799 12.349 11.6699 12.349C11.9022 12.349 12.0816 12.4359 12.2083 12.6098L13 13.6069C12.6516 14.0262 12.2558 14.3842 11.8124 14.6807C11.3691 14.9773 10.8888 15.2279 10.3715 15.4324C9.8648 15.6267 9.33171 15.7699 8.77223 15.8619C8.21275 15.954 7.64271 16 7.06212 16C6.05928 16 5.12505 15.821 4.25944 15.4631C3.40438 15.1051 2.66017 14.5887 2.0268 13.9137C1.39342 13.2285 0.89728 12.3899 0.538368 11.3979C0.179456 10.4059 0 9.27581 0 8.00767C0 6.85203 0.163622 5.78332 0.490865 4.80154C0.828664 3.81975 1.31425 2.97603 1.94762 2.27037C2.59155 1.55449 3.37799 0.997125 4.30694 0.598275C5.24645 0.199425 6.32318 0 7.53715 0C8.66667 0 9.65895 0.178971 10.514 0.536913C11.3796 0.884628 12.1449 1.38063 12.81 2.02493L12.0658 3.00671Z" fill="black"/>
</svg>
